<svg xmlns="http://www.w3.org/2000/svg" viewBox="0 0 560.47 571.64"><defs><style>.cls-1{fill:#4c410e;}.cls-2{fill:#0b0c09;}.cls-3{fill:#0c0c09;}.cls-4{fill:#68110f;}.cls-5{fill:#4f3f0e;}.cls-6{fill:#4f4010;}.cls-7{fill:#48400e;}.cls-8{fill:#4a3e0e;}.cls-9{fill:#55470f;}.cls-10{fill:#605b0f;}.cls-11{fill:#fed523;}.cls-12{fill:#e19a26;}.cls-13{fill:#fdd424;}.cls-14{fill:#df9927;}.cls-15{fill:#eb2123;}.cls-16{fill:#df9926;}.cls-17{fill:#df9a26;}.cls-18{fill:#a24d22;}.cls-19{fill:#b14c25;}.cls-20{fill:#e7b325;}.cls-21{fill:#e0a824;}.cls-22{fill:#4f1410;}.cls-23{fill:#090806;}.cls-24{fill:#9f2234;}.cls-25{fill:#ed548d;}.cls-26{fill:#4d4111;}.cls-27{fill:#0d0c08;}.cls-28{fill:#f1f3f1;}.cls-29{fill:#803318;}.cls-30{fill:#625413;}.cls-31{fill:#753814;}.cls-32{fill:#675115;}.cls-33{fill:#f1f4f0;}</style></defs><title>Asset 1@</title><g id="Layer_2" data-name="Layer 2"><g id="Layer_1-2" data-name="Layer 1"><path class="cls-1" d="M393.88,374.36c-8.87-7.61-16-16.92-24.41-24.95-3.93-3.77-2.38-5.84,1.29-8.42,10.61-7.49,21-15.24,31.55-22.88,2.42-1.76,4.79-3.6,7.3-5.24,2.94-1.91,4.06-4,2.11-7.42-2.12-3.75-3.73-7.79-5.55-11.71q-13.1-28-25.37-56.43c-4.62-10.73-2.7-18.15,4-27.06,25.66-33.92,55.19-64.13,86.6-92.57,18.77-17,38-33.45,57.07-50.12,1.72-1.51,3.58-2.85,4.82-3.84,2.51-.15,3.23,1.16,3.59,2.32,11.63,37.6,20,75.84,22.94,115.2.66,8.63-1.6,13.8-9.36,18.5-31.33,19-62.18,38.71-93.2,58.19-8.19,5.15-8,5.16-6.66,14.28,2.38,16.46,4.41,33,6.82,49.42.65,4.42-1.66,6.78-4.62,9.18-9,7.34-18,14.8-27.08,22.14-8.27,6.69-8.59,6.11-2,14.63,5.11,6.56,9.93,13.34,14.88,20-4.33,2.68-6.58-.91-8.77-3.32-3.45-3.8-6.6-7.89-9.92-11.83-9-12.88-8.81-14.35,3.06-24.65,6.8-5.89,14-11.32,21-17,5.84-4.75,7.69-10.43,6.44-17.67-2.05-11.81-2.82-23.81-5-35.6-2.27-12.15,1.31-20.53,12.74-27.22,30.16-17.69,59.24-37.2,89.09-55.43,6.81-4.16,9.17-9.14,6.62-16.57-2.55-32.31-9-63.91-17.72-95.09-3-10.91-4.46-11.43-12.64-4.11-27.79,24.85-56.14,49.06-82.31,75.72C421.32,175.09,402.41,196,385.71,219c-3.94,5-2,10,0,15.07,7.73,19.83,16.63,39.14,26,58.23,8.77,17.84,8.22,20.13-8.12,31.9-6.74,4.86-13.34,9.93-20.21,14.58-6.59,4.45-8.08,8.15-2.15,14.87,4.94,5.58,11.49,10.27,13.67,18.06A5,5,0,0,1,393.88,374.36Z"/><path d="M435.78,389.06c-2.4,0-4.07-1.95-5.5-3.6-.25-.29-.49-.57-.74-.84-2.27-2.5-4.44-5.17-6.54-7.74q-1.68-2.07-3.39-4.11c-9.19-13.19-9-14.85,3.12-25.35,4.46-3.87,9.17-7.61,13.72-11.21,2.43-1.92,4.85-3.84,7.25-5.79,5.52-4.49,7.51-9.95,6.25-17.2-1-5.56-1.65-11.24-2.32-16.75-.75-6.19-1.53-12.6-2.7-18.84-2.35-12.55,1.65-21.11,13-27.74,17.68-10.36,35.27-21.54,52.28-32.34,12-7.64,24.45-15.54,36.81-23.09,6.9-4.21,8.81-9,6.4-16l0-.13c-2.33-29.54-8.12-60.62-17.7-95-1.41-5.07-2.54-8.1-4.12-8.56s-4,1.37-7.71,4.69q-8.57,7.67-17.19,15.27c-21.78,19.3-44.31,39.26-65.09,60.43-23.16,23.59-40.78,43.95-55.44,64.08-3.78,4.8-1.93,9.55,0,14.57,6.83,17.52,15.1,36,26,58.21,8.92,18.15,8.3,20.58-8.28,32.53-2.26,1.63-4.51,3.29-6.76,4.95-4.37,3.22-8.89,6.54-13.46,9.63-3.61,2.44-5.34,4.47-5.61,6.58s.86,4.49,3.56,7.54c1.23,1.4,2.6,2.78,3.92,4.11,4,4,8.18,8.2,9.85,14.15l0,.08v.09a5.49,5.49,0,0,1-1.12,3l-.32.43-.41-.35a170,170,0,0,1-14.16-14.26c-3.29-3.59-6.69-7.3-10.26-10.71-1.78-1.7-2.56-3.14-2.45-4.53.13-1.74,1.61-3.12,3.79-4.66,7.54-5.32,15.11-10.86,22.44-16.22q4.54-3.33,9.1-6.65l2-1.46c1.73-1.28,3.52-2.6,5.35-3.8,3.07-2,3.6-3.83,1.94-6.75-1.49-2.64-2.74-5.45-3.95-8.17-.53-1.2-1.06-2.39-1.62-3.58-9.41-20.16-17.71-38.62-25.37-56.44-4.37-10.16-3.22-17.88,4.1-27.56,23.2-30.68,50.74-60.11,86.67-92.64,13.32-12.07,27.11-24,40.45-35.65q8.32-7.23,16.62-14.48c1.23-1.08,2.5-2.05,3.62-2.91l1.22-.94.13-.1h.15c2.88-.18,3.71,1.44,4.09,2.67,12.68,41,20.19,78.68,23,115.31.7,9.17-1.91,14.31-9.61,19-23.35,14.13-46.83,29-69.54,43.29q-11.82,7.46-23.64,14.89c-7.73,4.86-7.73,4.86-6.52,13.19l.08.59c1.15,7.93,2.23,16,3.28,23.81,1.13,8.4,2.3,17.09,3.55,25.62.69,4.74-1.88,7.26-4.8,9.63q-6.57,5.34-13.09,10.71c-4.66,3.82-9.31,7.65-14,11.44l-1.33,1.07c-3.32,2.67-5,4-5.08,5.45s1.4,3.38,4.35,7.17l.19.24c3.54,4.55,7,9.28,10.34,13.85q2.26,3.11,4.54,6.19l.33.43-.47.29A6,6,0,0,1,435.78,389.06ZM554.36,178.22c2.52,7.39.41,12.66-6.85,17.1-12.35,7.54-24.78,15.43-36.8,23.07-17,10.81-34.61,22-52.3,32.36-11.05,6.48-14.79,14.46-12.49,26.7,1.17,6.26,1.95,12.69,2.7,18.9.67,5.49,1.36,11.17,2.32,16.7,1.32,7.64-.78,13.4-6.61,18.14-2.4,2-4.83,3.88-7.25,5.8-4.55,3.6-9.25,7.33-13.7,11.19-11.7,10.15-11.83,11.27-3,24,1.12,1.33,2.25,2.71,3.37,4.08,2.1,2.57,4.26,5.22,6.51,7.71.25.27.5.56.75.85,1.92,2.22,3.73,4.33,6.91,2.65-1.4-1.91-2.81-3.82-4.21-5.74-3.34-4.56-6.79-9.29-10.32-13.82l-.19-.24c-6.25-8-6.24-8.29.89-14l1.33-1.08q7-5.69,14-11.43,6.54-5.37,13.1-10.71c2.79-2.27,5.05-4.49,4.44-8.71-1.25-8.54-2.42-17.23-3.55-25.64-1.05-7.8-2.13-15.87-3.28-23.79l-.08-.6c-1.28-8.8-1.15-9.07,7-14.17l23.63-14.9c22.72-14.34,46.2-29.16,69.57-43.3,7.31-4.43,9.79-9.31,9.13-18-2.78-36.56-10.28-74.21-22.93-115.09a2.53,2.53,0,0,0-2.92-2l-1.11.86c-1.11.85-2.37,1.81-3.57,2.86q-8.3,7.26-16.63,14.49C498.88,94,485.09,106,471.78,118.05c-35.88,32.48-63.38,61.88-86.54,92.5-7.16,9.47-8.24,16.67-4,26.57,7.65,17.81,15.95,36.26,25.36,56.41.55,1.19,1.09,2.39,1.62,3.59,1.21,2.7,2.45,5.49,3.91,8.09,1.92,3.38,1.24,5.8-2.26,8.08-1.81,1.18-3.59,2.49-5.3,3.76-.66.49-1.32,1-2,1.46l-9.1,6.65c-7.33,5.37-14.91,10.91-22.45,16.23-1.69,1.2-3.27,2.49-3.38,3.92-.07,1.06.63,2.28,2.15,3.73,3.59,3.44,7,7.16,10.31,10.76a170.89,170.89,0,0,0,13.65,13.81,4.26,4.26,0,0,0,.61-1.88c-1.61-5.66-5.65-9.71-9.56-13.64-1.34-1.34-2.72-2.72-4-4.14-2.9-3.29-4.11-5.93-3.8-8.34s2.12-4.63,6-7.28c4.55-3.07,9.06-6.4,13.42-9.61,2.26-1.66,4.51-3.32,6.78-5,16.1-11.61,16.62-13.65,8-31.28-10.93-22.22-19.2-40.74-26-58.27-2-5.08-4-10.32.1-15.56,14.68-20.15,32.33-40.55,55.52-64.18C461.65,133.29,484.19,113.32,506,94q8.61-7.62,17.18-15.27c4.16-3.71,6.64-5.49,8.66-4.9s3.22,3.59,4.8,9.26C546.22,117.51,552,148.63,554.36,178.22Z"/><path class="cls-2" d="M371.83,88.19c18.82-2.28,37.55-2.65,56.05,1.76.26,5.37-2.69,8.41-5.32,11.2-18.83,20-41,35.76-64.78,49.25-.26-.44-.52-.88-.79-1.31.07-6.94,4.24-12.47,6.76-18.49,5.36-12.77,8.33-25.8,6.87-39.68A4,4,0,0,1,371.83,88.19Z"/><path d="M357.61,151.08l-.26-.42c-.26-.44-.52-.88-.79-1.31l-.07-.12v-.15c.05-5.1,2.27-9.46,4.41-13.68.83-1.63,1.68-3.31,2.39-5,6-14.27,8.16-26.81,6.83-39.43a4.48,4.48,0,0,1,1.36-3.14l.12-.12.17,0C393.82,85,411.68,85.58,428,89.47l.37.08,0,.38c.27,5.48-2.7,8.63-5.32,11.41l-.14.15c-17,18.12-38.26,34.26-64.89,49.34Zm-.12-2.13c.16.26.31.52.47.77,26.34-15,47.36-31,64.23-48.91l.15-.15c2.53-2.7,5.15-5.48,5.05-10.31-16.05-3.77-33.64-4.3-55.32-1.68a3.43,3.43,0,0,0-.95,2.28c1.34,12.72-.85,25.41-6.91,39.85-.72,1.71-1.58,3.41-2.41,5C359.72,139.93,357.58,144.14,357.49,149Z"/><path class="cls-3" d="M89.35,83.86c8.77-30.09,20.37-58.7,42.89-83.08,4.16,5.51,4.48,11.07,5.43,16.37,2.66,14.88,1.21,29.76-.32,44.62a1.76,1.76,0,0,1-2.43-.12c-1.58-5.42-3.5-7.35-9.46-3.5-12,7.79-22.3,17.67-33.51,26.44A3.35,3.35,0,0,1,89.35,83.86Z"/><path d="M91.48,85.12A3.81,3.81,0,0,1,89,84.26l-.26-.21.09-.33c7.73-26.53,18.89-57.18,43-83.28l.4-.44.36.48c3.62,4.79,4.38,9.57,5.12,14.2.13.8.26,1.59.4,2.38,2.73,15.27,1.11,30.94-.31,44.76l0,.22-.18.13a2.23,2.23,0,0,1-3-.14l-.11-.1,0-.14c-.89-3-1.79-4.54-3-5s-3.08.09-5.69,1.78c-7.83,5.06-15,11.12-22,17C100,78.69,96.17,81.93,92.26,85l-.11.09H92A4.91,4.91,0,0,1,91.48,85.12Zm-1.55-1.45a2.81,2.81,0,0,0,1.83.43c3.85-3,7.66-6.21,11.34-9.31,7-5.88,14.21-12,22.09-17.06,2.89-1.87,5-2.47,6.58-1.88,1.92.72,2.86,3.06,3.59,5.52a1.2,1.2,0,0,0,1.51.11c1.42-13.69,3-29.2.3-44.25-.14-.79-.27-1.59-.39-2.39-.7-4.35-1.42-8.84-4.58-13.28C108.61,27.3,97.58,57.47,89.93,83.67Z"/><path class="cls-4" d="M421.58,371.64a25.62,25.62,0,0,1,8.29,8.47c2.14,3.34,4.39,6.74,8.81,7.49l11.22,14.14c-14.7,6.89-28.78,13-43.25,18.22-2.11.78-4.19,1.74-6.49.72-4.5-7.4-10.6-14.36-6.52-24.08,3.5-3.64,8.89-4,13.22-7.6l-13-14.65c0-1,.05-2,.07-2.94,4.8.81,9.16,5.06,14.26-1.44C410.77,366.69,416.81,372.21,421.58,371.64Z"/><path d="M402.25,421.63a5.43,5.43,0,0,1-2.29-.5l-.14-.06-.09-.13c-.6-1-1.24-2-1.88-3-4.08-6.34-8.3-12.9-4.67-21.55l.1-.15c1.91-2,4.3-3,6.82-4.08a26.5,26.5,0,0,0,6-3.23l-12.76-14.4v-.2c0-1,.05-2,.07-2.94v-.58l.57.09a21.54,21.54,0,0,1,3.57,1c3.54,1.25,6.59,2.33,10.22-2.29,1.7-2.16,4.51-1.08,7.49.06,2.11.81,4.3,1.66,6.22,1.43l.17,0,.15.09a26,26,0,0,1,8.45,8.63c2,3.06,4.19,6.54,8.47,7.27l.19,0,11.73,14.79-.57.27c-16.87,7.9-30.22,13.52-43.3,18.24l-.53.2A11.58,11.58,0,0,1,402.25,421.63Zm-1.75-1.35c1.87.76,3.6.11,5.42-.58l.55-.2c12.9-4.65,26.07-10.19,42.64-17.94l-10.7-13.5c-4.6-.87-6.92-4.49-9-7.68a25,25,0,0,0-8-8.22c-2.11.19-4.35-.67-6.52-1.5-2.74-1.06-5.1-2-6.34-.38-4.07,5.18-7.77,3.88-11.35,2.61a25.55,25.55,0,0,0-2.82-.88c0,.72,0,1.44-.05,2.16l13.19,14.89-.39.33a25.79,25.79,0,0,1-6.69,3.7c-2.4,1-4.67,2-6.43,3.79-3.36,8.11.52,14.15,4.63,20.53C399.3,418.37,399.92,419.32,400.5,420.28Z"/><path class="cls-5" d="M187.63,521.52c-22.21-2.4-39.54-18-46-41.1-2-7.17-2.08-14.42-2.21-21.75-.28-15.94,1.43-32-1.74-47.79-.39-1.95-.71-3.92-1.11-5.87-.75-3.55-2.83-4.5-6.49-4.3-29.9,1.56-58.9-3.39-87.38-12.25-11.34-3.53-22.26-8.75-34.74-8.46,0-4.78,2.29-9.49-3.32-11.84-1.66-.69-1.81-3.08-.71-4.39,3.13-3.75,1.74-6.6-1.26-9.42-3.25-3.07-2.63-6,.95-8.05,4-2.29,4.76-4.81,2.47-8.91s0-6.55,4.13-6.45c9.85.23,17.64-5,26-8.95,12.31-5.79,25.42-9.35,38.91-13.38-.93-3.47-3.53-5.14-5.43-7.23-7.89-8.66-14.89-17.93-19.6-28.73-1.44-3.31-3.15-6.66-2.68-10.51l1.19-.65c5.48,3.46,5.79,11.09,11.57,14.3.85,8.23,6.26,13.84,11.57,19.29,8.35,8.57,16.5,17.38,25.95,24.84,2.41,1.9,6.08,4.7,3.11,8.05-2.33,2.62-5.48-.31-8-1.67a4.71,4.71,0,0,1-1.63-1.15c-10-13.47-22.11-9.43-34.93-5.11-13.89,4.68-26.2,12.86-40.39,17.07-4.48,1.33-4.85,10.05-5.7,15.35-.59,3.63.24,8.61,1.67,12.56,2,5.56,4.87,10,12,11.64,15.83,3.75,30.82,10.66,47,13.55,16.53,3,33.08,5.63,50,4.84,8.7-.41,9.38-1.48,5.7-9.32a60,60,0,0,0-6.52-11.05,86.41,86.41,0,0,1-5.23-8.49c-1.31-2.56-3.83-5.88-.53-7.95,3-1.88,5.48,1.36,7.3,3.59,14.09,17.27,22.27,36.95,23.06,59.33.44,12.63-.23,25.28.17,37.91.57,17.89,5.48,34.11,19.66,46.28,4.49,5,10.44,7.43,16.6,9.48,2.7.9,5.85.93,7.44,3.93A3.29,3.29,0,0,1,187.63,521.52Z"/><path d="M187.85,522l-.27,0c-22.48-2.42-39.86-17.92-46.48-41.46-2-7-2.09-14.18-2.21-21.14l0-.73c-.08-4.63,0-9.34.09-13.89.21-11.12.42-22.62-1.82-33.81-.18-.89-.34-1.78-.5-2.67-.2-1.07-.39-2.13-.61-3.19-.64-3.05-2.25-4.11-6-3.91-27.71,1.45-56.35-2.57-87.55-12.28-2.65-.82-5.31-1.75-7.89-2.65-8.46-2.95-17.21-6-26.69-5.78H7.41V380a29.28,29.28,0,0,1,.23-3.41c.39-3.53.69-6.32-3.25-8a2.75,2.75,0,0,1-1.61-2,3.76,3.76,0,0,1,.71-3.2c3-3.53,1.65-6-1.21-8.74C.6,353.13-.16,351.53,0,350s1.32-3,3.29-4.1c3.8-2.17,4.42-4.4,2.29-8.23-1.41-2.53-1-4.17-.47-5.11.85-1.4,2.66-2.14,5-2.08C18,330.61,24.59,327.25,31,324c1.61-.82,3.27-1.66,4.93-2.44,10.75-5.06,21.94-8.37,33.78-11.87l4.72-1.4a12.46,12.46,0,0,0-3.69-5c-.5-.48-1-1-1.49-1.5-9.3-10.21-15.55-19.39-19.69-28.87l-.4-.92c-1.36-3.06-2.76-6.22-2.32-9.85l0-.25,1.68-.92.25.16c2.76,1.75,4.26,4.51,5.71,7.19s3,5.51,5.84,7.09l.23.13,0,.26c.84,8.12,6.22,13.65,11.43,19l3.52,3.63c7,7.26,14.28,14.78,22.38,21.17l.12.1c1.72,1.35,4.07,3.21,4.28,5.48a4.23,4.23,0,0,1-1.23,3.19c-2.16,2.43-4.91.72-7.13-.66-.52-.32-1-.64-1.52-.9l-.14-.07a4.83,4.83,0,0,1-1.66-1.22c-9.77-13.22-21.72-9.2-34.37-4.94a169.22,169.22,0,0,0-18.71,8.06c-6.93,3.32-14.09,6.76-21.7,9-3.47,1-4.3,7.24-5,12.23-.12,1-.25,1.88-.38,2.72-.53,3.25.12,8.08,1.65,12.31,2,5.62,4.8,9.7,11.65,11.32s13.88,3.95,20.56,6.17c8.54,2.83,17.36,5.76,26.39,7.37,15.78,2.89,32.64,5.65,49.86,4.84,4-.19,6.42-.52,7.1-1.65s-.15-3.4-1.82-7A58.51,58.51,0,0,0,119.45,375l-.23-.34a84.8,84.8,0,0,1-5-8.24c-.17-.33-.36-.68-.56-1-1.29-2.32-3-5.51.22-7.55s6,1.27,7.76,3.46l.19.24c14.61,17.9,22.4,38,23.17,59.63.22,6.45.16,13,.1,19.35-.06,6.08-.12,12.38.07,18.55.65,20.48,6.84,35.07,19.49,45.92,4.2,4.66,9.6,7.12,16.43,9.39.59.2,1.23.36,1.84.51,2.24.56,4.54,1.14,5.88,3.65l.05.15a3.77,3.77,0,0,1-.79,3.16Zm-57-121.86c3.67,0,5.47,1.41,6.17,4.73.22,1.07.41,2.15.61,3.22.16.89.32,1.77.5,2.65,2.26,11.3,2,22.86,1.84,34-.08,4.54-.17,9.24-.09,13.85l0,.74c.12,7.21.24,14,2.17,20.88,6.48,23,23.42,38.23,45.34,40.71a2.74,2.74,0,0,0,.44-2.07c-1.13-2.06-3.11-2.56-5.2-3.08-.63-.16-1.28-.32-1.91-.53-5.63-1.87-12-4.32-16.82-9.62-12.65-10.85-19.14-26.11-19.79-46.6-.19-6.2-.13-12.51-.07-18.6.06-6.33.12-12.88-.1-19.31-.76-21.44-8.48-41.3-22.95-59l-.19-.23c-2.15-2.65-4.12-4.71-6.45-3.25s-1.44,3.39.12,6.22c.21.37.4.72.58,1.07a83,83,0,0,0,5,8.13l.21.32a58.4,58.4,0,0,1,6.56,11.11c1.9,4,2.7,6.38,1.78,7.9s-3.39,1.91-7.91,2.13c-17.33.81-34.25-1.95-50.09-4.85-9.1-1.63-18-4.57-26.52-7.41-6.66-2.22-13.55-4.51-20.48-6.14-7.72-1.83-10.5-6.83-12.36-12-1.26-3.48-2.37-8.68-1.7-12.81.13-.83.26-1.74.38-2.69.71-5.28,1.59-11.84,5.68-13.06,7.53-2.23,14.66-5.66,21.55-9A168,168,0,0,1,56,319.56c13-4.38,25.29-8.51,35.49,5.3a4,4,0,0,0,1.33.92l.13.07c.51.27,1,.6,1.59.94,2.57,1.6,4.37,2.52,5.85.84a3.19,3.19,0,0,0,1-2.43c-.16-1.84-2.32-3.55-3.9-4.79l-.12-.1c-8.15-6.43-15.44-14-22.48-21.25l-3.52-3.63c-5.27-5.41-10.72-11-11.67-19.33-3-1.74-4.51-4.6-6-7.37-1.4-2.59-2.73-5-5.12-6.66l-.7.39c-.31,3.25,1,6.21,2.26,9.07l.41.92C54.58,281.83,60.78,290.92,70,301c.45.5.93,1,1.45,1.46,1.64,1.58,3.35,3.22,4.09,6l.13.47-.47.14L70,310.63c-11.8,3.49-23,6.79-33.64,11.81-1.64.78-3.3,1.62-4.9,2.43-6.52,3.32-13.26,6.74-21.3,6.57-2-.06-3.52.53-4.16,1.6s-.45,2.44.48,4.11c2.39,4.29,1.59,7.15-2.66,9.58-1.69,1-2.65,2.12-2.8,3.34S1.55,352.65,3,354c2.54,2.39,5,5.7,1.3,10.11a2.71,2.71,0,0,0-.51,2.33,1.79,1.79,0,0,0,1,1.28c4.63,1.94,4.24,5.53,3.86,9-.1.91-.21,1.85-.23,2.79,9.48-.11,18.14,2.92,26.53,5.85,2.57.89,5.23,1.82,7.86,2.64,31.08,9.67,59.61,13.67,87.2,12.23Z"/><path class="cls-5" d="M89.35,83.86l2.33.1c2.85,3.93.45,7.71-.49,11.44-4.62,18.48-7.76,37.09-6.47,56.36,24-6.92,35.8-23.53,39.78-46.92.81-4.78.82-10.14,5.58-13.39,3.08.73,2.71,2.72,1.8,4.91-1.88,13.92-7.11,26.87-11.85,40.72,7.9.12,14.89-3,22.21-4,26.13-3.5,51.79-2.18,76.67,6.82,6.26,2.26,10.81,2,16.45-1.89,24.2-16.75,50.79-28.74,78.81-37.61a32.7,32.7,0,0,1,4.88-.82c2.08-1,2.8.12,3.07,1.95-2.15,3.47-6,4-9.37,5.15a324.83,324.83,0,0,0-80.05,39.93c-4.84,3.32-9.48,7-14.13-.25a5.74,5.74,0,0,0-3.39-2c-42.38-11.88-83.52-12-121.41,14.05C78,169.26,70,184.93,68.42,203.88c-.39,4.72-1,9.34-3.5,13.37a22.25,22.25,0,0,0-3.17,15.12c-7.78,4.08-11,10.77-11.25,19.28-.12,3.52.36,7.33-2.66,10.15l-.49.34c-3.86-9.59-2-18.89,1.8-27.93a86.41,86.41,0,0,1,6.53-12.32,48.84,48.84,0,0,0,7.67-23.35,52,52,0,0,1,10.43-27.65c3.39-4.61,4.32-9.25,4.19-14.81a216.81,216.81,0,0,1,9.5-68.86C87.87,85.93,88.16,84.67,89.35,83.86Z"/><path d="M47.12,262.91l-.24-.58c-3.37-8.4-2.8-17.39,1.81-28.31a87.51,87.51,0,0,1,6.56-12.39,48.3,48.3,0,0,0,7.6-23.12A52.23,52.23,0,0,1,73.38,170.6c3-4.09,4.23-8.43,4.09-14.51a218.29,218.29,0,0,1,9.52-69l.1-.32a5.4,5.4,0,0,1,2-3.3l.14-.09,2.74.11.14.2c2.39,3.29,1.33,6.43.32,9.47-.26.79-.54,1.6-.73,2.38-5.51,22-7.52,39.19-6.5,55.58,21.93-6.54,34.63-21.71,38.82-46.35.13-.71.23-1.43.33-2.15.61-4.27,1.24-8.68,5.47-11.56l.18-.13.21,0a3.55,3.55,0,0,1,2.55,1.66c.59,1.16.15,2.6-.37,3.87-1.55,11.44-5.31,22.08-9.28,33.34q-1.19,3.34-2.36,6.75a54.88,54.88,0,0,0,12.92-2.15,76,76,0,0,1,8.53-1.8c28.47-3.82,53.62-1.58,76.9,6.84,6.39,2.31,10.72,1.81,16-1.84,22.74-15.73,48.56-28,78.95-37.67a18.84,18.84,0,0,1,3.4-.63c.5-.06,1-.12,1.48-.2a2.61,2.61,0,0,1,2.39-.17,3.27,3.27,0,0,1,1.32,2.54l0,.18-.1.15c-1.87,3-4.89,3.93-7.82,4.8-.61.18-1.21.36-1.81.56A326.49,326.49,0,0,0,233,147.06l-.63.44c-2.92,2-5.93,4.09-8.95,3.48-1.92-.39-3.64-1.8-5.25-4.31a5.47,5.47,0,0,0-3.1-1.78c-48.76-13.67-87.21-9.23-121,14-15.08,10.36-23.54,25.52-25.14,45-.35,4.31-.94,9.27-3.57,13.59a21.77,21.77,0,0,0-3.09,14.79l0,.35-.31.17c-7.08,3.7-10.67,9.87-11,18.85,0,.52,0,1,0,1.56,0,3.14-.06,6.39-2.79,8.93ZM89.5,84.37A4.77,4.77,0,0,0,88,87l-.09.32a217.18,217.18,0,0,0-9.48,68.7c.14,6.32-1.14,10.85-4.29,15.13a51.25,51.25,0,0,0-10.33,27.38,49.37,49.37,0,0,1-7.75,23.59,85.59,85.59,0,0,0-6.49,12.25c-4.39,10.4-5,19-2,27,2.34-2.21,2.36-5.09,2.39-8.14,0-.54,0-1.07,0-1.59.32-9.25,4-15.64,11.21-19.55A22.74,22.74,0,0,1,64.49,217c2.26-3.71,3-7.94,3.43-13.15C69.54,184,78.14,168.58,93.49,158c34.05-23.38,72.76-27.87,121.83-14.11a6.21,6.21,0,0,1,3.68,2.2c1.45,2.27,3,3.53,4.6,3.87,2.6.52,5.31-1.35,8.18-3.32l.64-.44a326.68,326.68,0,0,1,80.17-40c.61-.21,1.23-.39,1.85-.58,2.81-.84,5.48-1.64,7.15-4.21-.15-.88-.41-1.43-.77-1.62a1.79,1.79,0,0,0-1.55.23l-.14,0q-.79.12-1.59.21a18.18,18.18,0,0,0-3.22.59c-30.29,9.59-56,21.87-78.68,37.55-5.51,3.81-10.25,4.35-16.9,1.95-23.12-8.37-48.12-10.59-76.43-6.79a77.75,77.75,0,0,0-8.42,1.78c-4.41,1.11-9,2.26-13.87,2.18h-.69l.23-.65c.85-2.5,1.72-5,2.59-7.42,4-11.23,7.7-21.85,9.23-33.21l0-.12c.44-1.08.84-2.28.43-3.09A2.47,2.47,0,0,0,130.18,92c-3.7,2.64-4.29,6.76-4.86,10.75-.1.73-.21,1.46-.33,2.18-4.3,25.28-17.43,40.76-40.13,47.32l-.6.17,0-.62c-1.12-16.69.88-34.11,6.49-56.51.2-.82.48-1.65.75-2.46,1-2.86,1.86-5.56,0-8.37Z"/><path class="cls-6" d="M393.64,396.6c-.57,4.41,1.55,8.06,3.11,11.95,1.42,3.55,3.06,7.13,3.16,11.09l-1.22.69c-7.9-5.31-7-15.95-13.69-22-1.41,2.08-.65,7.2-6,5.38-3.64-5.57,4-12.38-2.5-17.74-.67,6,3.67,12.45-.72,18.25-5.2-.27-5.67-4.94-5.59-7.94.73-28.41-19.72-44.88-35.45-64-2.93-2.3-3.63-6.25-6.27-8.77-2.09,1.22-1.29,6.94-6,3.65-1.21-13.11-8.41-23.38-15.24-34.08-11.88-18.62-21.3-38.38-25-60.52a295.4,295.4,0,0,0-9.08-39.91,20.63,20.63,0,0,0-5.6-9.27c-5.32-5.44-4.42-8.35,3.65-9.75a281.79,281.79,0,0,0,34-7.65c14.14-3.82,27.44-9.86,41-15.34,3.58-1.45,7.17-4,11.14-.85l.52.11-.06.54c-2.28,3.16-6,3.93-9.25,5.41a305.68,305.68,0,0,1-73.15,23c-.91,2.72.74,4.92,1.64,7.27,5.11,13.43,8.2,27.41,10.34,41.53,3.16,20.77,11,39.58,21.66,57.46,10.07,16.93,22.23,32.35,34.49,47.69,15.78,19.75,32.26,39,45.48,60.66C390.1,395.24,391.37,396.57,393.64,396.6Z"/><path d="M398.67,420.92l-.25-.17c-4.38-2.94-6.13-7.47-7.82-11.85-1.35-3.49-2.74-7.09-5.47-9.78a12.18,12.18,0,0,0-.49,1.51c-.38,1.37-.82,2.92-2.12,3.6a4.63,4.63,0,0,1-3.66-.06l-.17-.06-.09-.14a6.77,6.77,0,0,1-.93-2.18,10,10,0,0,1-1.47,2.71l-.16.21-.27,0c-4.16-.21-6.2-3.05-6.06-8.45.59-23-13.13-38.45-26.4-53.37-3-3.33-6-6.78-8.9-10.27a14.64,14.64,0,0,1-3.51-4.76,17.87,17.87,0,0,0-2.45-3.7,5.91,5.91,0,0,0-1,1.79c-.45,1.12-.92,2.28-2,2.61-.87.26-1.91-.06-3.27-1l-.19-.14,0-.23c-1.11-12-7.17-21.4-13.58-31.39l-1.58-2.46c-13.79-21.61-21.77-40.9-25.1-60.71-1.86-11.07-4.58-25.6-9.07-39.84a20,20,0,0,0-5.48-9.08c-2.84-2.9-3.9-5.06-3.34-6.8s2.9-3,7.27-3.78a286.33,286.33,0,0,0,34-7.63c11.25-3.05,22.14-7.57,32.68-11.94,2.74-1.14,5.48-2.28,8.23-3.39.55-.22,1.1-.47,1.65-.72,3-1.34,6.33-2.86,9.9-.14l.84.2,0,.43-.07.61-.08.17c-1.83,2.53-4.53,3.59-7.14,4.61-.77.3-1.57.62-2.31,1a306.59,306.59,0,0,1-73,23c-.48,1.8.24,3.37,1,5,.25.54.5,1.08.7,1.63,4.6,12.09,7.9,25.32,10.38,41.63,2.87,18.93,9.94,37.67,21.59,57.28,9.72,16.35,21.35,31.25,34.45,47.64q4.14,5.16,8.31,10.31c12.92,16,26.28,32.48,37.2,50.4,1.07,1.75,2.2,2.92,4.23,3h.57l-.08.56c-.44,3.48.84,6.45,2.2,9.6.3.7.6,1.4.88,2.1l.46,1.14c1.3,3.2,2.64,6.5,2.74,10.13v.3Zm-13.76-23.37.43.39c3.21,2.89,4.72,6.81,6.19,10.6,1.68,4.34,3.27,8.44,7.19,11.2l.68-.38c-.16-3.34-1.42-6.46-2.65-9.48l-.47-1.14c-.28-.7-.57-1.4-.87-2.09-1.29-3-2.62-6.06-2.32-9.59-2.3-.24-3.58-1.84-4.53-3.39-10.89-17.86-24.23-34.35-37.13-50.29q-4.17-5.16-8.31-10.32c-13.12-16.42-24.78-31.34-34.53-47.75-11.72-19.72-18.83-38.58-21.72-57.64-2.47-16.24-5.75-29.4-10.32-41.42-.2-.53-.44-1.05-.68-1.57-.85-1.85-1.73-3.76-1-6l.1-.28.29-.05a306.3,306.3,0,0,0,73-23c.77-.35,1.58-.67,2.37-1,2.53-1,4.92-1.93,6.58-4.12l-.26-.11c-3.12-2.44-5.95-1.16-9,.19-.56.26-1.12.51-1.68.74-2.75,1.11-5.49,2.25-8.22,3.38-10.57,4.39-21.5,8.92-32.8,12a288.13,288.13,0,0,1-34.07,7.66c-3.91.67-6,1.69-6.48,3.09s.58,3.23,3.1,5.81a20.92,20.92,0,0,1,5.72,9.49c4.5,14.28,7.23,28.85,9.1,40,3.31,19.67,11.24,38.84,24.95,60.33l1.58,2.46c6.16,9.58,12.52,19.49,13.71,31.61a3,3,0,0,0,2.22.74c.65-.19,1-1.08,1.39-2a4.75,4.75,0,0,1,1.67-2.51l.32-.19.28.26a16.89,16.89,0,0,1,2.93,4.25,13.57,13.57,0,0,0,3.3,4.49l.08.08c2.86,3.48,5.94,6.94,8.91,10.28,13.4,15.06,27.25,30.64,26.65,54.06-.13,4.69,1.46,7.12,4.85,7.41,2.47-3.45,1.78-7.08,1.07-10.93a23.38,23.38,0,0,1-.61-6.86l.11-.91.71.58c3.88,3.18,3.06,6.82,2.27,10.34-.59,2.63-1.15,5.12.24,7.38a3.55,3.55,0,0,0,2.7.07c.92-.49,1.28-1.76,1.63-3a8,8,0,0,1,.91-2.33ZM377,387a27.84,27.84,0,0,0,.66,5.55c.19,1,.39,2.09.52,3.14v0C378.83,392.58,379.49,389.64,377,387Z"/><path class="cls-7" d="M399.91,419.64l6.73.33c-3.47,2.39-3.64,4.68-.49,7.81,5.77,5.73,11.18,11.82,16.92,18-1.37,2.49-4.26,2.52-7.24,2.3-2.35-3.4-3.39-7.74-7.2-10.23-1.79,6.58,4.42,7.17,7.24,10.23-7.5,2-9.41,7.3-10.23,14.54a95.76,95.76,0,0,1-9.56,32.12,30.22,30.22,0,0,0-2.94,15.42c.72,14.92,1,29.91,4.32,44.52,1.44,6.39-3.11,10.32-4.41,15.52-.37,1.52-2.18,1-3.4.39-14.21-6.9-15.25-8-21.28-23.43-1.8-4.63-3.35-9.36-4.86-14.09-3.37-10.57-1.27-9.08-11.74-9a88.91,88.91,0,0,1-36.62-7.8,5.11,5.11,0,0,1,2.44-2c9.53-1.67,18.25,2.71,27.42,3.84,19.88,2.46,38.08-7.53,45.86-25.76,8.82-20.65,13.56-41.67,6.95-64-.51-2.73-.65-5.42,1.09-7.84A9.37,9.37,0,0,0,399.91,419.64Z"/><path d="M391.74,571.64a5.75,5.75,0,0,1-2.31-.65c-14.44-7-15.45-8.12-21.52-23.7-1.89-4.83-3.51-9.82-4.88-14.12-.46-1.45-.82-2.67-1.12-3.71-1.52-5.17-1.52-5.17-6.72-5-1,0-2.09.05-3.42.05A90.57,90.57,0,0,1,315,516.63l-.54-.23.32-.5a5.65,5.65,0,0,1,2.68-2.21l.1,0c6.3-1.1,12.31.41,18.12,1.88a81.09,81.09,0,0,0,9.44,2C365,520,382.76,510,390.41,492c10.53-24.66,12.67-44.29,6.93-63.62-.52-2.77-.73-5.65,1.16-8.29l.13-.12a8.26,8.26,0,0,0,.94-.74l.16-.14,8.42.41-1.22.84c-1.6,1.1-2.42,2.14-2.52,3.2s.59,2.36,2.09,3.85c4.07,4,7.88,8.17,11.91,12.55,1.66,1.79,3.33,3.6,5,5.41l.25.27-.18.31c-1.5,2.74-4.57,2.79-7.6,2.56-7,1.91-8.94,6.81-9.76,14.1a96.41,96.41,0,0,1-9.61,32.29,29.38,29.38,0,0,0-2.89,15.17c.09,1.83.17,3.66.25,5.49.58,12.87,1.18,26.17,4.06,38.94,1,4.33-.68,7.57-2.29,10.7a24.2,24.2,0,0,0-2.12,5,1.7,1.7,0,0,1-.92,1.19A2.16,2.16,0,0,1,391.74,571.64ZM357,523.39c4.07,0,4.41.71,5.9,5.79.3,1,.66,2.24,1.12,3.69,1.36,4.28,3,9.26,4.85,14.06,5.94,15.23,6.92,16.31,21,23.16a3.16,3.16,0,0,0,2.32.46.68.68,0,0,0,.38-.52,25,25,0,0,1,2.2-5.26c1.59-3.11,3.1-6,2.2-10-2.89-12.86-3.5-26.2-4.08-39.11-.08-1.83-.16-3.66-.25-5.5a30.54,30.54,0,0,1,3-15.66,95.47,95.47,0,0,0,9.52-32c.81-7.24,2.81-12.54,9.75-14.73a17.85,17.85,0,0,0-2.37-1.61c-2.69-1.64-5.75-3.51-4.38-8.51l.18-.67.57.38c2.69,1.76,4,4.38,5.36,6.91a33.34,33.34,0,0,0,1.84,3.24v0c2.62.18,5.06.14,6.33-1.75-1.61-1.72-3.19-3.44-4.76-5.15-4-4.36-7.83-8.49-11.89-12.51-1.75-1.74-2.5-3.22-2.37-4.65a4.73,4.73,0,0,1,1.84-3.09l-5.17-.25c-.27.23-.54.44-.82.64-1.63,2.31-1.42,4.92-1,7.39,5.8,19.53,3.65,39.36-7,64.25-7.83,18.35-26,28.59-46.38,26.07a78.1,78.1,0,0,1-9.57-2c-5.69-1.43-11.57-2.91-17.65-1.86a4.48,4.48,0,0,0-1.81,1.33,89.14,89.14,0,0,0,35.85,7.5c1.32,0,2.44,0,3.4-.05Zm52-84.75c-.72,3.74,1.53,5.11,4.11,6.68.31.19.62.38.92.58l-.6-1.15C412.17,442.43,411,440.23,408.94,438.64Z"/><path class="cls-8" d="M318.23,515.63l-3.08.54c-11.46-2.14-22.2-6.63-33.09-10.53a36.89,36.89,0,0,0-27.07.22,232.48,232.48,0,0,1-24.65,7.75c-4.13,1.1-6,3.17-6.93,7.25a222.11,222.11,0,0,0-4.11,25.51c-.94,8-3.6,11-9.27,11.82-5.12.7-12.4-3.79-14.29-9.38-1.81-5.32-2.85-10.89-4.49-16.27-1.13-3.7-.34-8-3.62-11,0-.62.06-1.23.07-1.84,7.14-5.09,15.92-4.11,23.83-6.35,14.41-4.07,28.43-9.44,42.82-12.62,1.61.16.45-1.74.72-.44.06.28-.25.32-.94.29-3.31-.16-6.74,0-8.47-3.9,3.52-4.4,8.45-4,12.85-3a320.16,320.16,0,0,1,55.18,17.21C315.84,511.74,317.94,512.88,318.23,515.63Z"/><path d="M208.9,558.77c-5.38,0-11.86-4.53-13.64-9.8-1-3-1.79-6.1-2.55-9.11-.6-2.36-1.22-4.81-1.94-7.18a23,23,0,0,1-.71-3.77c-.34-2.63-.67-5.12-2.76-7l-.18-.16v-.24c0-.61.06-1.22.07-1.82v-.25l.2-.15c4.76-3.39,10.28-4.15,15.61-4.88a61.15,61.15,0,0,0,8.38-1.54c5.47-1.54,11-3.31,16.3-5,7.71-2.47,15.66-5,23.63-6.94-2.47-.25-4.77-1-6.13-4l-.13-.28.2-.23c3.67-4.59,8.81-4.2,13.35-3.21a322.49,322.49,0,0,1,55.26,17.24c2.17.91,4.52,2.13,4.85,5.2l0,.47-3.63.63h-.09c-9.25-1.73-18.15-5-26.76-8.21-2.14-.79-4.27-1.58-6.4-2.35a36.34,36.34,0,0,0-26.73.22,239.15,239.15,0,0,1-24.7,7.77c-3.86,1-5.64,2.88-6.58,6.87a225.74,225.74,0,0,0-4.1,25.46c-.92,8-3.64,11.43-9.69,12.26A9.42,9.42,0,0,1,208.9,558.77Zm-20.76-37.46c2.21,2.13,2.57,4.84,2.91,7.47a22.56,22.56,0,0,0,.68,3.61c.73,2.39,1.35,4.85,2,7.23.75,3,1.53,6.08,2.53,9,1.75,5.17,8.69,9.74,13.75,9.05,5.64-.77,7.95-3.75,8.84-11.39a226.53,226.53,0,0,1,4.12-25.57c1-4.36,3.07-6.49,7.29-7.61a238.66,238.66,0,0,0,24.6-7.73,37.2,37.2,0,0,1,27.42-.23c2.14.77,4.28,1.56,6.41,2.35,8.55,3.16,17.38,6.43,26.51,8.15l2.51-.44c-.45-2.2-2.3-3.15-4.16-3.93a320.78,320.78,0,0,0-55.09-17.18c-4.37-.95-8.86-1.29-12.17,2.61,1.54,3.06,4.32,3.18,7.27,3.3l.64,0h.38a.68.68,0,0,1,.28-.69l.32-.18.31.26a1.07,1.07,0,0,1,.2,1.14,1.16,1.16,0,0,1-1.26.61c-8.86,2-17.77,4.82-26.38,7.58-5.33,1.71-10.84,3.47-16.33,5a62.35,62.35,0,0,1-8.51,1.56c-5.14.71-10.45,1.43-15,4.56C188.18,520.4,188.16,520.85,188.14,521.31Z"/><path class="cls-9" d="M321.63,101.35l-2.58-1.73a213.84,213.84,0,0,1,52.78-11.43,9.66,9.66,0,0,1-.17,1.94c.22,2.6-1.67,3.59-3.59,4-14,2.59-27.87,6-41.87,8.64A4.86,4.86,0,0,1,321.63,101.35Z"/><path d="M325.11,103.32a5.2,5.2,0,0,1-3.81-1.59L318,99.48l.93-.33a215,215,0,0,1,52.9-11.45l.54,0v.53a10.11,10.11,0,0,1-.16,2c.16,2.37-1.22,3.89-4,4.41C361,95.9,353.7,97.47,346.67,99c-6.67,1.45-13.56,2.94-20.38,4.22A6,6,0,0,1,325.11,103.32Zm-4.95-3.56L322,101a4.38,4.38,0,0,0,4.11,1.23c6.81-1.28,13.7-2.77,20.36-4.21,7-1.53,14.31-3.1,21.52-4.44,2.3-.42,3.34-1.53,3.19-3.4V90a9.41,9.41,0,0,0,.15-1.3A214.38,214.38,0,0,0,320.16,99.76Z"/><path class="cls-10" d="M131.88,96.36c-.32-1.57-.42-3.24-1.79-4.38-1.69-10.66-2.64-21.18,5.44-30.07a7.42,7.42,0,0,1,1.82-.14A126,126,0,0,1,131.88,96.36Z"/><path d="M131.78,98.41l-.39-2c0-.24-.09-.47-.14-.71a5.19,5.19,0,0,0-1.48-3.39l-.15-.12,0-.19c-1.74-10.92-2.62-21.48,5.56-30.47l.11-.12.16,0a7.9,7.9,0,0,1,1.94-.15l.48,0v.49a126.85,126.85,0,0,1-5.49,34.72Zm-1.23-6.69A4.88,4.88,0,0,1,132,94.27a125.26,125.26,0,0,0,4.87-32,7.48,7.48,0,0,0-1.05.11C128.07,71,128.89,81.15,130.55,91.72Z"/><path class="cls-11" d="M383.72,218.33C397,197.87,413.25,179.87,430,162.27c31.41-33.1,66.2-62.56,100.67-92.35a28.27,28.27,0,0,1,3.52-2c11,36.18,19.87,72.34,21.77,109.94,1.23,11.25.53,12.66-10.56,14.5q-29.52,4.92-59,10c-29.5,5.16-58.78,11.38-87.91,18.36C393.6,221.88,387.49,225.77,383.72,218.33Z"/><path d="M390.05,223.26c-2.51,0-4.94-1.07-6.78-4.7l-.13-.26.16-.24c13.84-21.37,31.15-40.18,46.29-56.14,28.81-30.36,61-58.1,92.08-84.93l8.62-7.45a10.16,10.16,0,0,1,1.9-1.17c.47-.25,1-.54,1.7-.93l.55-.31.18.6c9,29.66,19.71,69,21.79,110.06,1.27,11.63.15,13.17-11,15-17.41,2.89-38,6.35-59,10-28.21,4.94-57,10.94-87.88,18.36-.85.2-1.73.49-2.66.8A19.6,19.6,0,0,1,390.05,223.26Zm-5.76-4.9c2.9,5.43,7.15,4,11.27,2.7.95-.32,1.85-.61,2.74-.82,30.94-7.42,59.71-13.43,87.94-18.37,21-3.68,41.63-7.14,59-10,10.61-1.77,11.36-2.81,10.14-14-2.06-40.72-12.57-79.71-21.56-109.25-.45.25-.85.45-1.19.63a9.43,9.43,0,0,0-1.72,1l-8.62,7.44c-31.08,26.82-63.23,54.55-92,84.87C415.26,178.47,398.07,197.16,384.29,218.36Z"/><path class="cls-12" d="M383.72,218.33c3,2.58,6.2,1.63,9.43.75,24.31-6.63,49-11.63,73.71-16.41,25.33-4.91,50.9-8.6,76.36-12.82.66-.11,1.33-.12,2-.24,9.8-1.81,9.8-1.81,10.71-11.8,2.68,12.58,2.39,13.21-7.59,19.46-31.06,19.43-62,39-93.21,58.21-6.23,3.82-8.86,8-7.74,15.29,2,12.81,3.36,25.7,5,38.56.38,3,.55,6,1.17,8.89,1.18,5.61-1,9.28-5.47,12.69-9,6.88-17.59,14.27-26.3,21.51-7.88,6.57-7.81,6.58-2.15,14.74a25,25,0,0,1,2,4.48c-4.35,5.19-8.14,1.67-12.12-1.61-1.82,3.69-2.65,7.3-6,9.45-4.16-1.38-5.8-6-9.5-8.07-6.47-7.12-12.78-14.4-19.49-21.28-3.54-3.63-3.05-5.82.86-8.59,11.65-8.26,23.18-16.7,34.68-25.18,7.34-5.4,7.44-5.55,3.64-13.77-10.71-23.2-22.18-46.06-31.21-70C380.6,227.76,377.75,222.57,383.72,218.33Z"/><path d="M403.51,380l-.23-.08c-2.44-.81-4-2.66-5.6-4.45a15.85,15.85,0,0,0-4-3.66l-.12-.1c-1.9-2.08-3.77-4.17-5.65-6.27-4.47-5-9.09-10.13-13.83-15-1.85-1.89-2.65-3.45-2.52-4.91s1.2-2.84,3.45-4.44c12.17-8.62,24.28-17.51,34.68-25.17,7.13-5.25,7.13-5.25,3.48-13.16-2.55-5.53-5.2-11.14-7.75-16.56-8.16-17.31-16.6-35.22-23.48-53.47-.17-.46-.35-.93-.54-1.39-1.73-4.4-3.7-9.39,2-13.45l.32-.23.29.26c2.7,2.35,5.65,1.54,8.78.69l.2-.06c25-6.8,50.11-11.84,73.75-16.41,17.68-3.43,35.77-6.31,53.26-9.1,7.58-1.2,15.41-2.45,23.11-3.73.32,0,.65-.08,1-.11s.67-.06,1-.12c9.43-1.74,9.43-1.74,10.3-11.35l.3-3.29.69,3.23c2.7,12.69,2.33,13.63-7.82,20q-13.58,8.49-27.12,17c-21.62,13.58-44,27.62-66.09,41.2-6.43,3.94-8.54,8.09-7.51,14.78,1.39,9.05,2.51,18.29,3.6,27.23q.69,5.67,1.4,11.35c.12.93.22,1.87.32,2.81a58.89,58.89,0,0,0,.85,6c1.13,5.35-.56,9.3-5.65,13.19-7.1,5.43-14.08,11.28-20.82,16.93l-5.47,4.57c-7.49,6.24-7.49,6.24-2.14,13.95l.08.12a13.51,13.51,0,0,1,1.46,3.13c.17.48.35,1,.55,1.44l.12.28-.2.23c-4.48,5.36-8.47,2.06-12.32-1.14-.31.66-.6,1.32-.88,2-1.2,2.77-2.34,5.39-5.05,7.12Zm-9.25-9a17,17,0,0,1,4.17,3.84c1.48,1.7,2.89,3.32,4.94,4.07,2.31-1.56,3.32-3.87,4.47-6.54.37-.84.74-1.7,1.18-2.57l.28-.57,1,.81c3.73,3.09,7,5.77,10.73,1.5-.16-.39-.31-.8-.45-1.2a12.47,12.47,0,0,0-1.34-2.9l-.08-.12c-5.77-8.31-5.72-8.59,2.32-15.29,1.83-1.52,3.64-3,5.46-4.57,6.76-5.66,13.74-11.51,20.86-17,4.74-3.63,6.32-7.27,5.28-12.2a58.66,58.66,0,0,1-.86-6.13c-.1-.94-.2-1.87-.32-2.8q-.72-5.67-1.4-11.35c-1.09-8.93-2.21-18.16-3.6-27.2-1.08-7.07,1.23-11.64,8-15.79,22.12-13.57,44.46-27.61,66.07-41.19l27.13-17c8.94-5.59,9.89-6.41,8-15.72-.8,7-2,7.36-10.8,9-.36.07-.72.1-1.09.14s-.6,0-.9.1c-7.7,1.28-15.54,2.52-23.11,3.73-17.49,2.79-35.57,5.67-53.23,9.09-23.62,4.57-48.76,9.6-73.68,16.4l-.2.05c-3.13.86-6.37,1.74-9.38-.64-4.7,3.56-3.08,7.68-1.36,12,.19.47.37.94.55,1.4,6.86,18.22,15.29,36.11,23.44,53.41,2.56,5.42,5.2,11,7.76,16.56,3.88,8.41,3.77,8.81-3.8,14.39-10.4,7.66-22.52,16.55-34.69,25.18-2,1.41-2.93,2.55-3,3.71s.61,2.45,2.23,4.12c4.76,4.87,9.39,10,13.86,15C390.52,366.88,392.38,369,394.26,371Z"/><path class="cls-11" d="M321.63,101.35c15.71-3.82,31.37-7.88,47.48-9.83.89-.11,1.7-.91,2.55-1.39,3.1,1.54,2.41,4.43,2.46,7,.23,11.9-3,23-7.74,33.77-2.83,6.37-6,12.57-9.06,18.85-6.35.58-11.52,4.32-17.29,6.47-11.3,4.22-22.27,9.4-34.22,11.74-18.34,3.69-36.77,6.85-56.22,7,6.62,9.59,18.07,10.36,25.65,17,4.7,11.47,6.77,23.61,8.65,35.73,4,25.87,14.71,48.94,29.67,70,6.57,9.25,11.33,18.6,10.69,30.15,2.88,4.59,5.92,8.4,11.13,2.46,3.14-.7,3.8,2.19,5.11,3.78,6.35,7.7,11.94,16.09,18.85,23.21,8.7,9,12,19.38,12.33,31.44.15,5.93.93,11.91,4.55,17a1.66,1.66,0,0,1,2.77.06c3.22-2.87,3.82-7.22,5.91-11.79,7,8.34,9.49,17.92,14,26.41l1.14,7.27c1.81,14.45-5.11,25.64-13.54,36.25-19.61,24.7-46.09,31.4-75.93,28.32-16.22-1.67-32.47-3-48.65-5.06-11.88-1.51-23.17,1.28-34.09,5.81-15.07,6.24-29.85,13.22-46,16.46-6.4,1.29-12.52,1.58-18.5-1.4-15.34-11.62-20.51-28-21.14-46.24-.45-12.95.16-25.94-.23-38.89-.71-23.47-9.63-43.83-24.41-61.81a45.92,45.92,0,0,0-3.77-3.38c1.68,7.09,6.68,10.6,8.47,15.81.47,4.83-2.86,7.21-6.35,9.15-14.45,8.06-29.59,12.92-46.4,9.25-13.63-1.72-26.4-6.56-39.33-10.83-3.46-1.14-6.93-2.59-10.5-3-4.61-.54-9.72.42-7-7.22.54-1.55-1.72-2.53-3.25-3.26S6,365.66,7.62,364c5.26-5.28.53-8.08-2.44-11.42a16.5,16.5,0,0,1-1.33-2.24c6.41-3.36,10.46-7.92,3.53-16.76,12.08,1.89,20.11-3.77,28.67-8,11.38-5.59,23.59-9,35.6-12.86,5.26-1.71,9.51-.64,13.44,3.63a44.4,44.4,0,0,0,15.34,11.09c-1.14-3.67-4.31-5.63-7-7.93C80.93,309,69.3,297.62,59.71,284.22c-3.49-4.87-1.45-6.82,2.59-8.82,0-2.09,1.07-3.85,1.83-5.7A35,35,0,0,0,66,263.87a23.75,23.75,0,0,1,.64-2.48c-.06-7.79,2.56-15.86-2.64-23-1.41-1.83-3.17-3.52-2.53-6.18-.73-2.93-4.21-1.51-5.7-3.75,1.68-3.08,3.34-6.32,5.18-9.46a37.51,37.51,0,0,0,5-16.88c1.28-18.19,9.84-32.86,24-44.28s30.39-17.68,47.93-20.92a157.81,157.81,0,0,1,78.74,5.34c3.25,1.06,7.31,1.49,5.44,8.65A320.37,320.37,0,0,1,321.63,101.35Z"/><path d="M173.71,510.92a23.22,23.22,0,0,1-10.6-2.4c-13.9-10.51-20.68-25.32-21.42-46.66-.23-6.67-.18-13.45-.14-20,0-6.2.1-12.6-.09-18.89-.68-22.31-8.62-42.43-24.3-61.5a13.93,13.93,0,0,0-1.83-1.7l-.61-.52a28.84,28.84,0,0,0,4.37,7.84,25.46,25.46,0,0,1,3.63,6.33l0,.11c.51,5.22-3.13,7.71-6.59,9.64-17.15,9.56-32,12.51-46.76,9.3C57.88,391,46.77,387.26,36,383.63l-6-2-2.34-.8a38.82,38.82,0,0,0-8.07-2.2c-.66-.07-1.33-.12-2-.16-2.38-.17-4.64-.33-5.68-1.92-.81-1.23-.74-3.07.22-5.8.33-.95-1.1-1.73-2.73-2.52l-.27-.12c-1.66-.81-2.5-1.61-2.66-2.54a2.16,2.16,0,0,1,.76-1.91c4.08-4.11,1.74-6.45-1-9.17-.52-.52-1-1-1.5-1.56A6.75,6.75,0,0,1,4,351.61c-.15-.29-.33-.62-.56-1l-.26-.45.46-.24c4.06-2.13,6.2-4.3,6.74-6.81s-.55-5.59-3.37-9.2l-.79-1,1.26.2c10.08,1.57,17.4-2.25,24.47-5.94,1.3-.67,2.59-1.35,3.9-2,9.3-4.57,19.3-7.72,29-10.76q3.36-1,6.7-2.13c5.53-1.78,10-.59,14,3.77a43.91,43.91,0,0,0,14.07,10.48c-1.06-2.26-3-3.79-5-5.41-.5-.39-1-.78-1.46-1.19-14.63-12.39-25.37-23.65-33.79-35.41-1.58-2.2-2.14-3.93-1.77-5.42.43-1.72,2-2.86,4.28-4a12.66,12.66,0,0,1,1.36-4.42c.17-.38.34-.77.5-1.15a33.76,33.76,0,0,0,1.83-5.75c.17-.9.43-1.77.63-2.45,0-2,.15-4,.31-5.95.47-5.92.91-11.52-2.85-16.72l-.54-.68c-1.3-1.62-2.65-3.29-2.11-5.78-.33-1.15-1.17-1.42-2.49-1.74a4.69,4.69,0,0,1-3.11-1.74l-.16-.25.14-.27c.52-.94,1-1.9,1.55-2.87,1.16-2.17,2.36-4.42,3.64-6.6a37,37,0,0,0,5-16.67c1.25-17.67,9.37-32.69,24.15-44.63,13.1-10.57,28.85-17.45,48.16-21a158.87,158.87,0,0,1,79,5.35l.91.29c2.77.83,6.18,1.86,5.15,7.66a319.77,319.77,0,0,1,98.64-48.82h0l4.8-1.17c13.88-3.4,28.24-6.91,42.74-8.67a3.9,3.9,0,0,0,1.53-.78c.28-.19.56-.38.84-.54l.23-.13.24.12c2.87,1.42,2.8,4,2.74,6.18,0,.42,0,.84,0,1.25.21,10.76-2.27,21.55-7.79,34-2,4.41-4.13,8.81-6.23,13.06-1,1.93-1.9,3.86-2.83,5.79l-.12.26-.29,0c-4.13.37-7.85,2.17-11.46,3.91-1.84.88-3.74,1.8-5.69,2.53-2.85,1.06-5.74,2.21-8.52,3.32-8.26,3.28-16.81,6.68-25.78,8.44-20,4-37.16,6.77-55.35,7,3.81,5,9.11,7.47,14.25,9.84,3.74,1.73,7.61,3.52,10.76,6.28l.09.07,0,.11c4.63,11.33,6.74,23.42,8.67,35.84,3.76,24.22,13.43,47.06,29.59,69.82,5.69,8,11.42,17.9,10.79,30.3,1.58,2.52,3.31,5,5.43,5.13,1.46.12,3-.82,4.82-2.86l.1-.12.16,0c2.75-.62,3.88,1.23,4.79,2.72a10.1,10.1,0,0,0,.82,1.23c2.29,2.77,4.51,5.67,6.66,8.48A162,162,0,0,0,359.7,357c8.19,8.44,12.16,18.53,12.47,31.77.13,5.2.73,11.17,4.14,16.28a2.18,2.18,0,0,1,1.32-.46,2.15,2.15,0,0,1,1.37.58c1.89-1.87,2.78-4.32,3.8-7.14.49-1.34,1-2.74,1.64-4.17l.34-.72.5.61c4.7,5.63,7.4,11.82,10,17.81,1.32,3,2.56,5.89,4.05,8.68l0,.16,1.15,7.27c1.85,14.78-5.47,26.34-13.65,36.64-18,22.63-42.95,32-76.37,28.51-5.18-.53-10.36-1-15.54-1.53-10.87-1.05-22.1-2.13-33.13-3.53-10.39-1.33-21.14.51-33.83,5.77-2.48,1-4.95,2.08-7.42,3.12-12.35,5.24-25.13,10.65-38.68,13.38A42.18,42.18,0,0,1,173.71,510.92ZM112.93,356.34l1.19,1.05c.74.67,1.35,1.18,1.86,1.6a15.83,15.83,0,0,1,2,1.84c15.6,19,23.85,39.87,24.52,62.1.19,6.31.14,12.72.09,18.92,0,6.55-.09,13.33.14,20,.72,21,7.38,35.59,20.95,45.86,6.22,3.1,12.64,2.41,18.09,1.31,13.46-2.7,26.18-8.09,38.49-13.31q3.71-1.57,7.42-3.12c12.87-5.34,23.78-7.19,34.35-5.85,11,1.41,22.24,2.49,33.1,3.54,5.18.49,10.36,1,15.54,1.53,33.06,3.41,57.75-5.8,75.49-28.14,9.3-11.71,15.14-22.29,13.43-35.88l-1.12-7.17c-1.49-2.81-2.79-5.79-4.05-8.68-2.49-5.7-5.05-11.59-9.35-16.94-.49,1.14-.9,2.26-1.29,3.35-1.08,3-2.1,5.8-4.42,7.87l-.37.33-.34-.37a1.45,1.45,0,0,0-1-.61,1.53,1.53,0,0,0-1,.56l-.42.43-.35-.49c-3.85-5.43-4.5-11.79-4.64-17.29-.31-13-4.18-22.86-12.19-31.11a163.3,163.3,0,0,1-12.24-14.77c-2.14-2.8-4.36-5.7-6.63-8.46a11.6,11.6,0,0,1-.9-1.34c-.88-1.42-1.63-2.67-3.56-2.3-2,2.21-3.78,3.22-5.54,3.07-2.62-.21-4.54-2.95-6.28-5.73l-.09-.13v-.16c.68-12.18-5-21.91-10.6-29.83-16.24-22.89-26-45.87-29.76-70.24-1.91-12.33-4-24.31-8.56-35.51-3-2.62-6.63-4.28-10.44-6-5.52-2.54-11.22-5.18-15.21-11l-.54-.77h1c18.47-.14,35.8-2.9,56.13-7,8.88-1.74,17.38-5.12,25.6-8.39,2.79-1.11,5.68-2.26,8.54-3.33,1.91-.71,3.79-1.62,5.61-2.5,3.6-1.73,7.32-3.52,11.52-4q1.35-2.78,2.72-5.55c2.09-4.25,4.26-8.64,6.21-13,5.46-12.29,7.91-23,7.7-33.56,0-.42,0-.86,0-1.29.06-2.14.11-4-1.95-5.14l-.53.35a4.6,4.6,0,0,1-2,1c-14.44,1.75-28.77,5.26-42.62,8.65l-4.79,1.17a319,319,0,0,0-99.4,49.44l-1.14.83.36-1.36c1.57-6-1.09-6.83-4.18-7.76l-.94-.29A157.91,157.91,0,0,0,138,137.38c-19.14,3.53-34.75,10.34-47.71,20.81C75.71,170,67.7,184.73,66.48,202.11a37.94,37.94,0,0,1-5.11,17.1c-1.27,2.17-2.47,4.41-3.62,6.57-.47.87-.93,1.74-1.4,2.6a4.23,4.23,0,0,0,2.33,1.09c1.31.32,2.79.68,3.26,2.58l0,.12,0,.12c-.5,2.08.66,3.52,1.89,5,.18.24.37.48.56.71,4,5.51,3.51,11.55,3,17.39-.15,2-.31,4-.3,5.95v.08l0,.08a22.18,22.18,0,0,0-.63,2.43,35.3,35.3,0,0,1-1.89,5.93c-.16.38-.34.78-.51,1.17a10.81,10.81,0,0,0-1.28,4.34v.3l-.27.14c-1.87.92-3.65,2-4,3.48-.29,1.17.24,2.68,1.61,4.6,8.38,11.69,19.06,22.89,33.63,35.23.47.4,1,.78,1.43,1.17,2.34,1.87,4.75,3.81,5.74,7l.32,1-1-.42a44.45,44.45,0,0,1-15.52-11.21c-3.76-4.09-7.74-5.17-12.92-3.5-2.23.73-4.47,1.43-6.71,2.13-9.63,3-19.58,6.17-28.82,10.71-1.3.63-2.59,1.31-3.88,2-6.94,3.62-14.1,7.36-23.89,6.2,2.48,3.44,3.41,6.41,2.84,9.06-.75,3.51-4.12,5.79-6.8,7.24l.33.6a5.4,5.4,0,0,0,.69,1.11c.46.52,1,1,1.45,1.52,2.7,2.71,5.75,5.77,1,10.58a1.27,1.27,0,0,0-.48,1c.07.39.49,1,2.12,1.8l.26.13c1.55.75,3.9,1.87,3.24,3.76-.84,2.37-.94,4-.33,4.91.78,1.18,2.79,1.32,4.92,1.47.67,0,1.35.09,2,.17A39.33,39.33,0,0,1,28,379.87l2.32.8c2,.66,4,1.34,6,2C47,386.29,58.1,390,69.56,391.48c14.54,3.16,29.18.24,46.1-9.19,3.31-1.85,6.51-4,6.09-8.62a24.66,24.66,0,0,0-3.48-6c-1.87-2.65-4-5.65-5-9.78Z"/><path class="cls-13" d="M135.53,61.91c-3.45,6.68-1.84,14.31-4,21.26-.87,2.82-1,5.87-1.45,8.81-3,14-6.67,27.68-12.29,40.88-1.79,4.22-4,7-8.33,9.07A99.52,99.52,0,0,0,81.84,160.5c-1.61-27.34,2.4-52.15,9.84-76.54,10.55-13.49,29.23-27.64,43.2-32.67C136.64,54.74,135,58.41,135.53,61.91Z"/><path d="M81.4,161.61l-.06-1.08c-1.49-25.4,1.64-49.78,9.87-76.72l.08-.16C102,70,120.62,55.89,134.71,50.82l.42-.15.2.4c1.13,2.22.92,4.5.73,6.71a16.66,16.66,0,0,0,0,4l0,.17-.07.14c-1.94,3.75-2.26,7.92-2.56,12a41.66,41.66,0,0,1-1.4,9.23A34.53,34.53,0,0,0,131,89.26c-.11.93-.22,1.87-.37,2.79-2.48,11.45-6.11,26.42-12.32,41-2,4.72-4.49,7.42-8.58,9.32a98.29,98.29,0,0,0-27.5,18.49ZM92.14,84.19c-8.06,26.41-11.2,50.35-9.86,75.21a99.5,99.5,0,0,1,27-17.93c3.89-1.8,6.16-4.27,8.08-8.8,6.17-14.51,9.79-29.43,12.26-40.8.14-.89.25-1.81.36-2.73a34.35,34.35,0,0,1,1.1-6.11,40.48,40.48,0,0,0,1.36-9c.31-4.08.63-8.3,2.59-12.18a18.46,18.46,0,0,1,.05-4.14c.18-2,.35-3.93-.44-5.77C120.77,57.05,102.6,70.84,92.14,84.19Z"/><path class="cls-14" d="M163.33,508.08c18.41.54,35.13-5.74,51.65-12.81,5.49-2.35,10.88-5,16.49-7,12.39-4.44,25-6,38.09-2.86,6.12,1.48,12.52.81,18.78,1.4,17.68,1.66,35.23,5,53.32,1.42,25.87-5.11,42.17-21,53.22-43.49a51.28,51.28,0,0,0,5.17-17.07c5.49,15.26,4.39,30.6.41,45.92-2,7.71-5.23,15-8.12,22.41-6.73,17.3-29.26,27.3-45.84,24.87-9.48-1.38-18.85-3.48-28.27-5.26-22.77-8.91-45.5-17.94-70.33-19.27,3.71,2.17,8.48.92,12.49,4.88C236,508,213.07,518.49,187.7,519.68,179.2,516.61,169.83,515.37,163.33,508.08Z"/><path d="M351.52,521.75a35.41,35.41,0,0,1-5.1-.35c-6.56-1-13.17-2.28-19.57-3.56-2.9-.58-5.81-1.16-8.71-1.71L317,515.7c-20.93-8.2-42.53-16.65-65.55-18.59.46.11.94.2,1.42.29,2.64.5,5.36,1,7.86,3.49l.62.61-.83.23c-7.17,2-14.31,4.33-21.22,6.59-16.52,5.41-33.6,11-51.59,11.86h-.1l-.09,0c-2-.71-4-1.33-6-1.93-6.64-2-13.5-4.11-18.58-9.81l-.77-.87,1.16,0c18.65.56,35.64-6,51.43-12.77,1.68-.72,3.34-1.46,5-2.2,3.74-1.66,7.6-3.38,11.51-4.78C244.93,483,257.48,482,269.67,485A54.71,54.71,0,0,0,281.36,486c2.31,0,4.69.09,7,.31,3.43.32,6.91.71,10.28,1.09,13.95,1.57,28.38,3.2,42.89.33,23.57-4.65,40.87-18.79,52.88-43.21a50.7,50.7,0,0,0,5.11-16.9l.23-2.17.74,2c4.93,13.7,5.06,28.38.42,46.21a146.78,146.78,0,0,1-6.21,17.61l-1.93,4.86C386.56,512.25,367.25,521.75,351.52,521.75Zm-105.65-26,2.06.11c24.53,1.31,47.36,10.25,69.44,18.89l1,.41c2.82.52,5.73,1.11,8.64,1.69,6.38,1.27,13,2.59,19.52,3.55,16,2.33,38.54-7.17,45.3-24.56.64-1.62,1.29-3.25,1.94-4.87A146.59,146.59,0,0,0,400,473.49c4.36-16.75,4.47-30.68.3-43.61A53.07,53.07,0,0,1,395.33,445c-12.15,24.72-29.68,39-53.57,43.76-14.66,2.89-29.17,1.26-43.2-.32-3.37-.38-6.84-.77-10.26-1.09-2.3-.22-4.67-.27-7-.31a55.69,55.69,0,0,1-11.9-1.1c-12-2.9-24.37-2-37.8,2.84-3.88,1.39-7.72,3.1-11.44,4.75q-2.5,1.13-5,2.21c-15.56,6.66-32.3,13.12-50.67,12.87,4.81,4.86,11.16,6.79,17.32,8.66,2,.59,4,1.21,5.95,1.91,17.81-.85,34.79-6.42,51.22-11.8,6.64-2.18,13.49-4.42,20.39-6.36-2.12-1.75-4.44-2.2-6.7-2.63a15.21,15.21,0,0,1-5-1.58Z"/><path class="cls-15" d="M65.6,270.93a7,7,0,0,1-3.33,4.48c-6,1.68-9.27-.86-11.28-6.5-.86-2.39-.72-5.38-3.15-7.11-.13-7.5-.48-15,2.14-22.27,2.51-6.94,2.87-7.27,11.48-7.36l3.41,3.6c6.06,8.9,3.84,18.63,2.81,28.23l0-.13C65.83,265.87,67.12,268.82,65.6,270.93Z"/><path d="M58.92,276.43c-3.93,0-6.64-2.4-8.4-7.35a16.87,16.87,0,0,1-.59-2.19c-.41-1.83-.79-3.55-2.38-4.69l-.2-.14,0-1.77c-.13-6.92-.28-14.07,2.2-20.93,2.61-7.24,3.17-7.6,11.94-7.69h.22l3.56,3.77c5.46,8,4.4,16.65,3.37,25-.08.68-.17,1.37-.25,2.05l.92-.95-2.17,5.09c0,.33-.07.66-.1,1a6.78,6.78,0,0,1-.93,3.5,7.54,7.54,0,0,1-3.53,4.69l-.13.07A13.11,13.11,0,0,1,58.92,276.43ZM48.34,261.54c1.72,1.35,2.15,3.27,2.57,5.13a17.35,17.35,0,0,0,.55,2.07c2,5.75,5.32,7.67,10.6,6.21a6.57,6.57,0,0,0,3.06-4.12l.08-.19a6,6,0,0,0,.81-3.08,6.17,6.17,0,0,1,1.2-3.85c.12-1.13.26-2.25.4-3.38,1-8.56,2-16.65-3.15-24.28l-3.22-3.38c-8.28.09-8.4.41-10.79,7s-2.27,13.74-2.14,20.57Z"/><path class="cls-16" d="M69.5,392c15.57.36,30-3.86,43.76-10.82,3.62-1.83,6.83-4.06,9-7.58a65.06,65.06,0,0,1,11.52,23.87C111.55,398.5,90.33,398,69.5,392Z"/><path d="M117,398.38c-15.07,0-31.41-1.26-47.62-5.92l-3.72-1.07,3.87.08c14.33.34,28.56-3.19,43.53-10.77,2.87-1.45,6.47-3.61,8.78-7.39l.38-.63.44.59a65.69,65.69,0,0,1,11.61,24.05l.15.59-.61,0C128.43,398.2,122.8,398.38,117,398.38Zm-43.75-5.91c20.9,5.38,41.89,5.34,59.89,4.5a64.39,64.39,0,0,0-10.85-22.53,22.17,22.17,0,0,1-8.78,7.15C99.67,388.59,86.46,392.16,73.23,392.47Z"/><path class="cls-17" d="M275.24,191.94c-13.26-1.58-23.12-9.09-32.06-17.72.21-1.83,1.11-2.25,2.11-2.24,18,.28,35.77-1.5,53.54-3.94a52.38,52.38,0,0,1,7-.08c-13,5.88-27.48,6-41.36,10.53C272.66,179.72,273.89,185.88,275.24,191.94Z"/><path d="M275.89,192.52l-.71-.08c-13.92-1.66-24.16-10-32.35-17.86l-.18-.17,0-.25c.21-1.78,1.07-2.68,2.56-2.68h.06c19.75.32,38.95-1.94,53.46-3.94a29.12,29.12,0,0,1,4.85-.12c.73,0,1.46,0,2.2,0l2.35,0-2.14,1c-7.54,3.41-15.73,5-23.65,6.43a159.45,159.45,0,0,0-15.93,3.56c6.71,1.87,8,7.57,9.21,13.09ZM243.71,174c7.89,7.59,17.72,15.52,30.89,17.32-1.3-5.82-2.66-11.24-10.23-12.38l-2.1-.32,2-.65a144,144,0,0,1,17.9-4.15c7.44-1.4,14.5-2.72,21.28-5.45a29,29,0,0,0-4.57.12c-14.55,2-33.79,4.27-53.62,3.95C244.61,172.46,243.94,172.66,243.71,174Z"/><path class="cls-18" d="M335.38,330.31c-1.79,3.55-1,10-6.53,9.47-4.54-.44-3.17-6.52-4.64-10a5,5,0,0,1,0-2c2.55-3,.23-7,2.23-10.61C331.51,320.31,332.77,325.8,335.38,330.31Z"/><path d="M329.49,340.32a5.53,5.53,0,0,1-.69,0c-3.47-.34-3.88-3.62-4.25-6.52a15,15,0,0,0-.8-3.78,3,3,0,0,1-.06-1.57c0-.2.05-.4.06-.59v-.17l.11-.13c1.23-1.46,1.22-3.22,1.2-5.09a10.4,10.4,0,0,1,1-5.45l.25-.45.45.27c3.8,2.33,5.51,6,7.17,9.51.59,1.25,1.2,2.56,1.9,3.75l.13.24-.12.24a16.72,16.72,0,0,0-1.08,3.48C334,337,333.25,340.32,329.49,340.32ZM324.74,328c0,.17,0,.34-.06.51a2.32,2.32,0,0,0,0,1,16,16,0,0,1,.87,4c.43,3.36.86,5.41,3.36,5.66,3.49.35,4.13-2.37,4.87-5.5a18.59,18.59,0,0,1,1.05-3.46c-.66-1.16-1.24-2.4-1.8-3.6-1.53-3.24-3.1-6.59-6.34-8.78a10.71,10.71,0,0,0-.61,4.47C326.09,324.34,326.1,326.32,324.74,328Z"/><path class="cls-19" d="M379,405.81a2.11,2.11,0,0,1-2.78-.07c-.17-8.71-4-17.2-1.93-27.48,6,6.7,10.73,12.23,6.15,20.78C379.38,401,379.44,403.54,379,405.81Z"/><path d="M377.61,406.8a2.7,2.7,0,0,1-1.71-.67l-.18-.15v-.23a62.28,62.28,0,0,0-1.21-9.69c-1-5.59-2-11.37-.72-17.9l.2-1,.67.74c5.69,6.31,11.08,12.27,6.22,21.34a12.75,12.75,0,0,0-1.06,4.4c-.09.74-.19,1.51-.33,2.24l0,.2-.17.12A2.94,2.94,0,0,1,377.61,406.8Zm-.9-1.31a1.56,1.56,0,0,0,1.83,0c.11-.64.2-1.31.28-2A13.49,13.49,0,0,1,380,398.8c4.34-8.11,0-13.45-5.41-19.45-1,5.95,0,11.32.9,16.53A64.49,64.49,0,0,1,376.71,405.49Z"/><path class="cls-20" d="M383.92,542c-1.71,10.24,8,15.61,7.44,25.27-8.23-6.07-10.12-15-14.83-23.84-1.74,8.14,4.73,12.79,5.11,19.3-4-1-4.75-4.1-6.06-6.6-4.65-8.88-7.6-18.36-10.11-28-1-3.86-.3-5.27,3.35-6.53,7.31-2.52,13.53-7,20.07-13.69,1.83,17.2,3.51,33,5.33,50.17C388,554,387.59,548,383.92,542Z"/><path d="M391.81,568.22l-.75-.55c-6.07-4.48-8.73-10.46-11.55-16.79-.85-1.93-1.73-3.9-2.72-5.86-.37,3.89,1.19,7,2.71,10,1.22,2.41,2.47,4.9,2.64,7.69l0,.68-.66-.17c-3.58-.93-4.75-3.41-5.78-5.6-.2-.42-.39-.84-.6-1.24-5-9.52-7.93-19.58-10.15-28.17-1.07-4.12-.21-5.79,3.67-7.13,6.94-2.39,13.07-6.57,19.87-13.55l.75-.77L394.83,559l-.88-.57c-4.3-2.75-5.9-6.46-7.59-10.38-.64-1.48-1.29-3-2.12-4.51-.28,4.5,1.68,8,3.76,11.69s4.12,7.34,3.86,12ZM376.33,542l.64,1.21c1.31,2.43,2.4,4.89,3.46,7.27,2.63,5.93,5.13,11.54,10.45,15.8-.06-4-1.86-7.16-3.76-10.53-2.27-4-4.63-8.24-3.69-13.82l.22-1.31.7,1.13a45.79,45.79,0,0,1,2.93,5.93c1.5,3.49,2.93,6.8,6.33,9.33l-5.1-48c-6.63,6.65-12.68,10.69-19.52,13-3.37,1.16-4,2.33-3,5.93,2.21,8.53,5.13,18.52,10.06,27.95.22.42.42.85.63,1.28.94,2,1.84,3.93,4.42,4.85a20.81,20.81,0,0,0-2.46-6.57c-1.78-3.53-3.63-7.18-2.57-12.13Z"/><path class="cls-4" d="M415.87,448c-1.65,0-3.31-.14-5-.12-3.16,0-5.18-1.22-5.1-4.6.07-3.2-1-6.51,1.09-10.61,3.86,5.06,12.56,6.19,8.94,15.33Z"/><path d="M415.83,448.53h-.74v0l-.8,0c-1.11,0-2.27-.08-3.39-.07a6,6,0,0,1-4.37-1.38,4.91,4.91,0,0,1-1.24-3.73c0-.81,0-1.62-.09-2.47-.16-2.43-.35-5.19,1.23-8.35l.36-.72.48.64a20.28,20.28,0,0,0,4.3,3.77c3.62,2.62,7.37,5.33,4.71,12l-.4-.16v.47Zm-4.4-1.12c1,0,2,0,2.91.07l1.15,0c2.13-5.74-.95-8-4.5-10.53a24.47,24.47,0,0,1-4-3.34,14.59,14.59,0,0,0-.81,7.12c.06.88.12,1.71.1,2.56a4,4,0,0,0,.95,3,4.83,4.83,0,0,0,3.64,1.09Z"/><path class="cls-21" d="M200.64,531.73c-2.75,8.44,1.32,14.41,1.38,21-6.05-8.36-8.3-17.87-8.31-28.05,0-1.6,1.29-2.29,2.69-2.32,7.91-.17,15.32-3.3,23.87-4.79-1.7,11.76-3.24,22.44-4.91,34-6.21-5.21-2.48-13.08-6.71-18.44-2.72,7.28,2.46,13.86.59,21.53C202.66,548.49,202.86,540.36,200.64,531.73Z"/><path d="M209.53,555.63l-.63-.59c-5.09-4.78-6.22-10.71-7.42-17-.27-1.4-.55-2.84-.87-4.3-1,4.44-.08,8.2.78,11.85a31.82,31.82,0,0,1,1.13,7.1v1.57l-.91-1.27c-5.65-7.81-8.4-17.08-8.41-28.34,0-1.67,1.25-2.77,3.18-2.82,4.8-.1,9.4-1.31,14.27-2.58,3.05-.8,6.21-1.62,9.52-2.2l.68-.12-5.14,35.61L215,552c-3.6-3-4-6.85-4.39-10.56-.27-2.59-.53-5-1.83-7.16-1,3.35-.29,6.57.41,10s1.41,6.85.5,10.6Zm-8.84-25.69.43,1.67c.55,2.12.95,4.22,1.34,6.25,1.11,5.84,2.17,11.36,6.48,15.82.56-3.21-.07-6.29-.69-9.28-.76-3.67-1.54-7.47-.06-11.43l.31-.83.55.7c2,2.5,2.29,5.53,2.6,8.47.35,3.4.69,6.63,3.35,9.27l4.68-32.41c-3,.56-5.94,1.32-8.76,2.06-4.94,1.29-9.6,2.5-14.51,2.61-.52,0-2.2.18-2.2,1.82,0,10.35,2.36,19,7.2,26.29a42.31,42.31,0,0,0-1-5.12c-1-4.29-2.06-8.72-.26-14.25Z"/><path class="cls-15" d="M236.68,218c9.57,11.71,9.57,25.71,0,35.81-8.91,9.4-24.07,11.07-34.47,3.81-12-8.42-15-22.06-7.61-35.65C209,208.11,218.52,207.21,236.68,218Z"/><path d="M217,262.6a26.14,26.14,0,0,1-15-4.61c-12.25-8.57-15.23-22.48-7.77-36.3l.09-.12c14.45-13.91,24.42-14.85,42.68-4l.14.11c9.71,11.89,9.7,26.2,0,36.47A27.73,27.73,0,0,1,217,262.6ZM195,222.23c-7.15,13.32-4.28,26.7,7.5,34.94,10.21,7.13,25.06,5.49,33.82-3.75,9.34-9.86,9.35-23.62,0-35.07C218.44,207.76,209.15,208.64,195,222.23Z"/><path class="cls-22" d="M111.64,265.11c-6.25-7.79-10.38-16.83-15.08-25.53-1.7-3.15-2.75-6.81-8.07-8.72,5.93-1,10.15-2.87,13.46-6.3,2.86-3,6.32-3.46,10-2.38,12.43,3.63,24.67,3.68,37-2.35l1,18.35q-25.18.38-34.95,23.58A6.18,6.18,0,0,1,111.64,265.11Z"/><path d="M111.48,265.71l-.23-.29c-5-6.17-8.63-13.21-12.18-20q-1.45-2.81-2.95-5.58c-.25-.48-.5-1-.74-1.46-1.34-2.69-2.72-5.48-7.06-7l-1.79-.64,1.88-.32c6-1,10.06-2.93,13.18-6.16,2.79-2.89,6.34-3.74,10.54-2.51,13.44,3.92,25.43,3.16,36.66-2.32l.67-.33,1.07,19.62H150c-16.48.24-28.09,8.07-34.49,23.27a6.69,6.69,0,0,1-3.69,3.62ZM90.2,231c3.53,1.77,4.88,4.46,6.08,6.88.23.48.47,1,.72,1.42,1,1.86,2,3.72,3,5.59,3.47,6.66,7.06,13.54,11.83,19.56a5.62,5.62,0,0,0,2.81-2.93c6.5-15.43,18.23-23.46,34.88-23.87l-.93-17.09c-11.26,5.31-23.28,6-36.7,2.06-3.87-1.13-7-.39-9.54,2.25C99.33,228,95.55,229.92,90.2,231Z"/><path class="cls-12" d="M133.24,338.16c7.78-.4,15.08,2.6,22.76,1.89,9.54-.88,19.18.82,28.73-1.82,5.38-1.5,7.21.71,6.92,6.42-.66,12.81-16.37,27.93-31.32,21.4C148.87,361,139.45,352.5,133.24,338.16Z"/><path d="M167.78,368.12a19.1,19.1,0,0,1-7.65-1.61c-12.58-5.5-21.53-14.71-27.35-28.15l-.29-.66.72,0a52.61,52.61,0,0,1,11.07,1,46,46,0,0,0,11.67.91,107.42,107.42,0,0,1,10.74-.27c5.89,0,12,.1,17.9-1.55,2.66-.73,4.55-.6,5.8.4s1.93,3.17,1.76,6.54c-.38,7.42-5.55,15.44-12.87,20A21.9,21.9,0,0,1,167.78,368.12ZM134,338.63c5.73,12.84,14.41,21.66,26.54,27,5.79,2.53,12.26,1.9,18.22-1.79,6.94-4.29,12-12.18,12.4-19.17.15-3-.3-4.85-1.38-5.71s-2.59-.86-4.91-.21c-6.06,1.68-12.22,1.63-18.18,1.58-3.49,0-7.11-.06-10.63.26a47.36,47.36,0,0,1-11.93-.91A54,54,0,0,0,134,338.63Z"/><path class="cls-23" d="M175.1,165.48c.6-4.35,4.08-4.86,7.37-5.26,14-1.71,28.12,14.68,24.42,28.3-2,7.49-7.54,11.62-15.41,11.58-14.27-.09-26-15.88-21.92-29.42.81-2.68,1.9-5,5.25-5,1.79,2.5,1.31,5.78,2.85,8.38,1.06,1.79,2.39,3.24,4.53,3.48a2.82,2.82,0,0,0,3-2c.87-2.56-.41-4.44-2.17-6.12C180.81,167.23,177.53,167.24,175.1,165.48Z"/><path d="M191.61,200.6h-.14c-6.9,0-13.74-3.77-18.32-10s-6-13.63-4.07-20.1c.78-2.56,1.91-5.29,5.57-5.38.77-4.57,4.64-5.05,7.76-5.43,6.73-.82,13.93,2.37,19.26,8.53s7.49,13.82,5.7,20.4C205.28,196.36,199.68,200.6,191.61,200.6Zm-17.06-34.45c-2.62.11-3.64,1.81-4.51,4.67-1.87,6.17-.41,13.35,3.92,19.22s10.93,9.52,17.52,9.56h.13c7.58,0,12.83-4,14.8-11.21,1.7-6.26-.36-13.54-5.5-19.48s-12-9-18.38-8.19c-3.63.44-6.27,1-6.89,4.52a13.89,13.89,0,0,0,3.26,1.43,11.44,11.44,0,0,1,4.5,2.34c1.61,1.52,3.32,3.66,2.3,6.64a3.3,3.3,0,0,1-3.57,2.35c-2.59-.28-4-2.25-4.9-3.71a12.82,12.82,0,0,1-1.34-4.13A11.05,11.05,0,0,0,174.55,166.15Zm1.35.4a14.94,14.94,0,0,1,1,3.42,12.07,12.07,0,0,0,1.22,3.81c1.22,2.05,2.5,3.05,4.15,3.23a2.32,2.32,0,0,0,2.52-1.68c.66-2,.07-3.58-2-5.6a10.68,10.68,0,0,0-4.13-2.12A18.42,18.42,0,0,1,175.9,166.55Z"/><path class="cls-24" d="M111.64,265.11c3.72-14,11.68-24.05,26.07-28.27,4.37-1.29,8.42-1.17,12.3,1.33,3.1,6.91,1.6,14.27,2,21.42.34,6.25,0,12.54-.25,18.82-.15,4.24-.35,8.54-4.09,11.55-3.77-4.6-.8-9.64-.81-14.45,0-10.45-3.53-13.56-14.06-12.51-6.69.67-11.16,5.73-17.1,7.78A8.09,8.09,0,0,1,111.64,265.11Z"/><path d="M147.57,290.66l-.31-.38c-2.76-3.38-2.1-6.95-1.46-10.4a25.34,25.34,0,0,0,.54-4.36c0-5.24-.9-8.38-2.89-10.17s-5.28-2.38-10.62-1.85c-3.87.38-7.07,2.34-10.16,4.23a35.3,35.3,0,0,1-6.83,3.53l-.22.07-.2-.12a8.53,8.53,0,0,1-4.27-6l0-.11,0-.1c4-15.23,12.68-24.59,26.41-28.62,5-1.46,9-1,12.71,1.39l.12.08.06.14c2.25,5,2.13,10.28,2,15.37,0,2-.1,4.17,0,6.22.27,5.09.07,10.28-.12,15.3-.05,1.19-.09,2.37-.13,3.56-.14,4.09-.3,8.73-4.28,11.93Zm-11.29-28.35c3.64,0,6.12.74,7.84,2.3,2.21,2,3.2,5.36,3.22,10.9a25.84,25.84,0,0,1-.56,4.55c-.6,3.23-1.16,6.29.94,9.18,3.25-2.89,3.38-6.94,3.52-10.85,0-1.19.08-2.38.13-3.57.19-5,.39-10.16.12-15.21-.11-2.09-.06-4.22,0-6.29.11-4.94.22-10-1.87-14.81-3.42-2.16-7.17-2.54-11.76-1.19-13.33,3.91-21.74,13-25.7,27.81a7.54,7.54,0,0,0,3.59,5.1,35.85,35.85,0,0,0,6.41-3.35c3.19-1.95,6.48-4,10.58-4.38A35.47,35.47,0,0,1,136.28,262.31Z"/><path class="cls-25" d="M115.68,270.78a24.13,24.13,0,0,1,30-9.21c3.36,1.5,4,3.76,4.19,6.94.49,7.3-1.18,14.34-2.25,21.45l.06-.07a13.88,13.88,0,0,1-4.09,4.06l.08-.05a4.85,4.85,0,0,1-6,0h0a31.79,31.79,0,0,0-6.89-4C125.09,284,119.32,278.25,115.68,270.78Z"/><path d="M140.68,295.44a5.67,5.67,0,0,1-3.29-1.15l-.5-.34a28.4,28.4,0,0,0-6.29-3.6l-.18-.13-.7-.71c-5.39-5.55-11-11.28-14.49-18.51l-.12-.25.15-.23a24.69,24.69,0,0,1,30.65-9.41c3.8,1.7,4.29,4.45,4.49,7.36.38,5.77-.58,11.44-1.5,16.92-.26,1.55-.53,3.09-.76,4.65l-.32-.05.3.19a14.49,14.49,0,0,1-4.14,4.13h0A5.82,5.82,0,0,1,140.68,295.44Zm-9.62-6a30.14,30.14,0,0,1,6.4,3.67l.49.34a4.36,4.36,0,0,0,5.41.07h0a13.16,13.16,0,0,0,3.81-3.73c.23-1.52.48-3,.74-4.56.92-5.43,1.87-11,1.49-16.69-.22-3.27-.88-5.17-3.9-6.51a23.69,23.69,0,0,0-29.25,8.79c3.47,7,8.92,12.57,14.19,18Z"/><path class="cls-12" d="M243.71,359.83c13.23,3.57,26.68,4.65,40.39,4.24,7.08-.21,13.74-1.7,20.48-3.48,4-1.08,5.66,1,4.19,4.89a19.87,19.87,0,0,1-9,10.34c-2.59,1.49-5.32,2.74-8,4.1-18,3.21-33.52-1.43-46.08-15C244.45,363.51,242.6,362.23,243.71,359.83Z"/><path d="M281.32,381.38c-14,0-26-5.4-35.95-16.14-.18-.2-.37-.39-.56-.58-1.18-1.19-2.65-2.67-1.56-5l.18-.38.41.11c12.19,3.28,25.36,4.66,40.24,4.22a90.19,90.19,0,0,0,20.38-3.47c2.66-.7,4,0,4.6.67s1.21,2.14.17,4.88a20.28,20.28,0,0,1-9.17,10.61c-1.8,1-3.7,2-5.53,2.87-.83.41-1.66.81-2.48,1.23l-.14.05A60.19,60.19,0,0,1,281.32,381.38ZM244,360.43c-.5,1.51.44,2.45,1.51,3.52l.59.61c12.09,13.08,27.41,18.08,45.55,14.88l2.43-1.21c1.82-.9,3.7-1.82,5.47-2.84a19.28,19.28,0,0,0,8.74-10.09c.66-1.77.67-3.14,0-3.86s-1.91-.82-3.61-.37a90.54,90.54,0,0,1-20.6,3.5C269.3,365,256.17,363.66,244,360.43Z"/><path class="cls-26" d="M243.71,359.83c10,14.94,24.49,20.16,41.76,19.4,2.18-.09,4.47-1.79,6.35.69-16,5.77-30.15,1.06-42.5-9-14.46-11.79-20.1-28.51-23-46.33-.45-2.83.74-5,3.75-4.13,3.82,1.16,5.9-.08,6.6-3.58,2.91-14.49,15.48-18.29,26.54-22.35,8.57-3.16,18.32-2.09,27.06,2.66-7.27.95-14.42-2.39-21.68-.92s-14,3.34-19.32,10.57c4.8.4,7.06-5.21,10.53-3.26,4.43,2.49,8.36,4.78,13.57,2.11,1.48-.76,3.08.83,4.05,2.28a7.69,7.69,0,0,0,5.47,3.68c7.38,1.31,7.34,1.55,6,12.15-2-5.56-2.42-11.51-9.65-9.43-1.44.42-2.55-1.87-3.44-3.25-.76-1.17-2.45-2.72-2.93-2.24-6.12,6.19-11.44-3.73-15.45-1.34-4.55,2.72-7.29,4.39-11.81.81-1.42-1.13-2.88,1.06-3.49,2.6-1.09,2.78-1.9,5.67-3,8.45-.7,1.78-1,4.59-3.28,4.52-8.49-.23-5.61,4.71-4.57,9.12C233.6,342.84,236.78,352.19,243.71,359.83Z"/><path d="M278.13,382.9c-9.9,0-19.64-3.87-29.12-11.59-16-13-20.76-31.76-23.15-46.64-.3-1.86.08-3.4,1-4.24a3.36,3.36,0,0,1,3.35-.45c1.82.56,3.18.54,4.16,0a4.44,4.44,0,0,0,1.81-3.16c2.81-14,14.63-18.28,25.06-22.07l1.8-.65c8.53-3.14,18.55-2.16,27.47,2.69l1.35.73-1.53.2a37.38,37.38,0,0,1-10.36-.56c-3.7-.55-7.53-1.12-11.28-.36-6.8,1.38-13.33,3.16-18.41,9.57a9.12,9.12,0,0,0,4.28-2c1.67-1.17,3.41-2.37,5.49-1.2l.16.09c4.31,2.42,8,4.52,12.93,2,1.44-.74,3.15.16,4.69,2.45a7.19,7.19,0,0,0,5.15,3.47c7.84,1.39,7.75,2,6.39,12.66l-.27,2.08-.71-1.93c-.3-.85-.56-1.7-.82-2.54-1.48-4.76-2.54-8.21-8.21-6.58-1.59.46-2.71-1.35-3.6-2.81l-.4-.64a6,6,0,0,0-2.22-2.1c-3.85,3.83-7.49,1.7-10.42,0-2-1.16-3.67-2.15-5.06-1.32-4.62,2.76-7.62,4.55-12.38.77a.78.78,0,0,0-.7-.18c-.73.2-1.57,1.45-2,2.57-.54,1.37-1,2.79-1.48,4.17s-1,2.87-1.52,4.28c-.14.36-.26.75-.38,1.15-.51,1.67-1.14,3.73-3.38,3.69-2.56-.07-4.21.35-4.91,1.25-.89,1.16-.31,3.16.31,5.28.19.66.38,1.32.54,2,2,8.67,5.1,18.62,12.3,26.56l0,.06c9.17,13.73,22.69,20,41.32,19.18a8.84,8.84,0,0,0,1.75-.31c1.63-.4,3.47-.86,5,1.2l.41.54-.64.23A40.76,40.76,0,0,1,278.13,382.9Zm-49.31-62.15a1.89,1.89,0,0,0-1.27.43,3.69,3.69,0,0,0-.71,3.33c2.37,14.71,7.1,33.23,22.8,46,13.37,10.89,27.26,14,41.31,9.17-1-.92-2.15-.65-3.53-.31a10.25,10.25,0,0,1-1.93.34c-19,.84-32.8-5.57-42.18-19.59C236,352,232.87,342,230.8,333.16c-.14-.64-.33-1.29-.52-1.93-.66-2.27-1.34-4.61-.14-6.17.91-1.18,2.8-1.71,5.73-1.64,1.33.08,1.83-1.15,2.39-3,.14-.43.27-.85.41-1.22.55-1.39,1-2.84,1.5-4.24s1-2.82,1.5-4.21c.18-.46,1.15-2.76,2.68-3.17a1.72,1.72,0,0,1,1.58.36c4.22,3.34,6.69,1.87,11.16-.8,2-1.18,4,0,6.16,1.26,2.92,1.71,5.94,3.48,9.27.11a.85.85,0,0,1,.71-.23c1,.1,2.45,1.71,3,2.55.13.21.27.43.41.67.72,1.17,1.61,2.62,2.48,2.37,6.6-1.9,8,2.54,9.44,7.25l.12.4c1-8.18.52-8.27-5.85-9.4a8.14,8.14,0,0,1-5.8-3.9c-.45-.67-2-2.81-3.4-2.11-5.38,2.76-9.51.44-13.88-2l-.16-.09c-1.46-.82-2.64-.1-4.43,1.15-1.6,1.11-3.42,2.37-5.9,2.17l-.89-.08.53-.72c5.37-7.36,12.35-9.29,19.62-10.76,3.93-.8,7.84-.21,11.63.35a44.32,44.32,0,0,0,8.38.71c-8.27-4-17.34-4.71-25.12-1.85l-1.8.66c-10.68,3.88-21.72,7.9-24.42,21.33a5.37,5.37,0,0,1-2.27,3.82c-1.24.73-2.86.78-5,.14A3.81,3.81,0,0,0,228.82,320.75Z"/><path class="cls-27" d="M94.16,195.68c-.1,8.64-3.06,16.21-10,21.75-6.31,5-12.54,2.74-14-5.25-1.6-8.72,1.39-16.43,6.89-23.13,3.08-3.75,7-6.77,12.1-4.57C93.8,186.48,94.11,191.09,94.16,195.68Z"/><path d="M77.62,220.59a7,7,0,0,1-2.49-.45c-2.8-1-4.75-3.84-5.49-7.87-1.5-8.14.86-16.06,7-23.54,2.65-3.22,6.84-7.21,12.68-4.71,4.85,2.07,5.29,6.69,5.35,11.65h0c-.11,9.39-3.54,16.83-10.21,22.14A11.21,11.21,0,0,1,77.62,220.59Zm8.07-36.36c-2.78,0-5.43,1.67-8.28,5.14-6,7.23-8.23,14.88-6.79,22.72.68,3.67,2.4,6.2,4.86,7.12s5.43.15,8.35-2.18c6.42-5.1,9.73-12.29,9.83-21.35-.06-4.79-.45-8.91-4.74-10.74A8.24,8.24,0,0,0,85.69,184.23Z"/><path class="cls-28" d="M175.1,165.48c7.63-1.64,12.92,1.16,14.16,7.49.54,2.8,0,5.33-2.39,7.09a6.47,6.47,0,0,1-6.55.72c-6.44-2.44-8.16-7-5.51-15.13Z"/><path d="M183.13,181.85a8.38,8.38,0,0,1-3-.6c-6.73-2.55-8.52-7.41-5.81-15.76l.06-.18L175,165c4.28-.92,7.94-.48,10.59,1.27a10,10,0,0,1,4.16,6.62c.64,3.29-.23,5.85-2.59,7.58A6.7,6.7,0,0,1,183.13,181.85ZM175.23,166c-2.47,7.71-.88,12,5.27,14.34a5.91,5.91,0,0,0,6.07-.67c2-1.48,2.76-3.7,2.2-6.58a8.88,8.88,0,0,0-3.73-6c-2.4-1.59-5.77-2-9.76-1.14Z"/><path class="cls-29" d="M236.68,218c-2.1.27-3.76-.74-5.51-1.73-12-6.8-20.73-6-31.58,2.81-1.53,1.24-2.82,2.8-5,2.89C205.13,206.38,223,204.7,236.68,218Z"/><path d="M193.63,222.47l.55-.82c5.13-7.57,12.23-12.18,20-13,7.92-.82,16,2.35,22.86,8.94l.75.72-1,.14c-2.19.27-3.93-.72-5.62-1.68l-.19-.11c-11.88-6.74-20.28-6-31,2.75l-.83.72c-1.24,1.09-2.51,2.21-4.45,2.29Zm23-12.94a23.52,23.52,0,0,0-2.37.13c-7.12.74-13.67,4.83-18.56,11.56a8.5,8.5,0,0,0,2.7-1.83l.86-.74c11-8.94,20-9.74,32.15-2.85l.2.11a10.28,10.28,0,0,0,3.8,1.56C229.71,212.3,223.15,209.53,216.64,209.53Z"/><path class="cls-30" d="M28.31,356.85c-4.9.12-8.63-2.22-8.09-6.41s4.71-4.86,8.65-4.57c.54,4-4.87,2.89-4.39,5.56C24.83,353.4,27,355.06,28.31,356.85Z"/><path d="M28,357.36c-3,0-5.47-.9-6.91-2.5a5.43,5.43,0,0,1-1.31-4.48c.47-3.64,3.73-5.41,9.18-5l.4,0,.06.41c.34,2.54-1.48,3.35-2.82,3.94s-1.71.84-1.58,1.59c.22,1.22,1.24,2.35,2.32,3.54.48.54,1,1.1,1.42,1.67l.57.78-1,0Zm-.47-11c-2.77,0-6.31.7-6.76,4.19a4.41,4.41,0,0,0,1.06,3.68,7.86,7.86,0,0,0,5.46,2.15c-.22-.26-.46-.53-.7-.79-1.12-1.24-2.29-2.53-2.56-4s1.08-2.2,2.17-2.69,2.29-1,2.26-2.49Z"/><path class="cls-31" d="M67.68,264c-.4-9.46,1.16-19.12-2.8-28.23.8.44,2.07.68,2.34,1.34C70.85,246,72.22,255,67.68,264Z"/><path d="M67.26,266,67.18,264c-.1-2.48-.07-5,0-7.46.08-6.86.16-14-2.72-20.59l-.58-1.33,1.28.69a6.63,6.63,0,0,0,.8.35c.74.3,1.5.6,1.76,1.24,4.33,10.61,4.48,19.29.45,27.31ZM65.8,236.71c2.5,6.49,2.41,13.28,2.34,19.86,0,1.73,0,3.5,0,5.26,2.95-7.21,2.5-15.07-1.36-24.53C66.67,237.09,66.23,236.89,65.8,236.71Z"/><path class="cls-32" d="M110.82,206.48a3.59,3.59,0,0,1-3,3.33,3.33,3.33,0,0,1-3.78-2.43c-.55-1.47.35-2.52,1.83-2.77C107.81,204.29,109.8,204.19,110.82,206.48Z"/><path d="M107.13,210.37a3.85,3.85,0,0,1-3.6-2.82,2.44,2.44,0,0,1,.1-2.12,2.9,2.9,0,0,1,2.12-1.31c1.48-.24,4.25-.7,5.53,2.16l0,.12,0,.14a4.05,4.05,0,0,1-3.44,3.76A3.78,3.78,0,0,1,107.13,210.37Zm.43-5.42a10.4,10.4,0,0,0-1.65.16,1.91,1.91,0,0,0-1.41.82,1.4,1.4,0,0,0,0,1.27,2.89,2.89,0,0,0,3.22,2.12,3.07,3.07,0,0,0,2.61-2.76A2.69,2.69,0,0,0,107.56,205Z"/><path class="cls-24" d="M130.78,289.88c3.14-.13,5.55,1,6.89,4C134.48,294.08,132.67,291.91,130.78,289.88Z"/><path d="M137.25,294.39c-3,0-4.79-1.95-6.53-3.84l-1.05-1.13,1.09,0c3.54-.15,6,1.3,7.36,4.29l.3.66-.72,0Zm-5.31-4c1.41,1.51,2.83,2.83,4.91,3A5.78,5.78,0,0,0,131.94,290.39Z"/><path class="cls-24" d="M143.62,294a7.87,7.87,0,0,1,4.09-4.06C147.85,292.76,146.47,294.09,143.62,294Z"/><path d="M144,294.46h-.42l-.75,0,.32-.68a8.39,8.39,0,0,1,4.34-4.3l.66-.28,0,.72a4.53,4.53,0,0,1-1.05,3.52A4.28,4.28,0,0,1,144,294.46Zm3.18-3.77a7.26,7.26,0,0,0-2.75,2.75,3,3,0,0,0,2-.76A3,3,0,0,0,147.2,290.69Z"/><path class="cls-24" d="M137.68,293.88l6,0C141.68,296.39,139.68,296.32,137.68,293.88Z"/><path d="M140.71,296.24a4.56,4.56,0,0,1-3.41-2l-.67-.82,8.11,0-.65.81a4.52,4.52,0,0,1-3.37,2Zm-1.86-1.85a2.85,2.85,0,0,0,1.86.85h0a2.81,2.81,0,0,0,1.83-.84Z"/><path class="cls-31" d="M65.6,270.93c-.31-2.66-.42-5.26,2.13-7.06A7.38,7.38,0,0,1,65.6,270.93Z"/><path d="M65.23,272l-.12-1c-.34-2.87-.41-5.6,2.34-7.53l.63-.44.14.76A7.89,7.89,0,0,1,66,271.29Zm2.14-7.19c-1.37,1.32-1.53,3-1.38,4.93A6.63,6.63,0,0,0,67.37,264.82Z"/><path class="cls-33" d="M90.33,191.68c0,4.83-2.42,8.3-5.81,8.29-3.93,0-4.91-2.79-4.85-6,.07-3.93,1.51-7.45,5.84-7.85C89.4,185.74,90.07,189,90.33,191.68Z"/><path d="M84.53,200.47h0a5.15,5.15,0,0,1-3.82-1.38c-1.07-1.09-1.57-2.78-1.53-5.14.09-5,2.32-8,6.29-8.34,4.73-.43,5.18,4.09,5.36,6v0a10,10,0,0,1-2.45,7.15A5.37,5.37,0,0,1,84.53,200.47Zm1.54-13.89-.52,0c-4.35.4-5.33,4.22-5.38,7.36,0,2.08.37,3.53,1.25,4.42a4.09,4.09,0,0,0,3.1,1.08h0a4.36,4.36,0,0,0,3.14-1.36,9,9,0,0,0,2.16-6.4C89.56,189,88.91,186.58,86.07,186.58Z"/></g></g></svg>